<svg width="24" height="24" viewBox="0 0 24 24" fill="none" xmlns="http://www.w3.org/2000/svg">
<mask id="mask0_22_416" style="mask-type:alpha" maskUnits="userSpaceOnUse" x="0" y="0" width="24" height="24">
<rect width="24" height="24" fill="#D9D9D9"/>
</mask>
<g mask="url(#mask0_22_416)">
<path d="M12.0003 17C12.2241 17 12.4116 16.9243 12.5627 16.773C12.7139 16.6217 12.7894 16.4342 12.7894 16.2105V11.7368C12.7894 11.5131 12.7138 11.3257 12.5624 11.1743C12.411 11.023 12.2234 10.9474 11.9997 10.9474C11.7759 10.9474 11.5884 11.023 11.4373 11.1743C11.2861 11.3257 11.2106 11.5131 11.2106 11.7368V16.2105C11.2106 16.4342 11.2862 16.6217 11.4376 16.773C11.589 16.9243 11.7766 17 12.0003 17ZM12 9.14576C12.2409 9.14576 12.4428 9.06428 12.6058 8.90133C12.7687 8.73839 12.8502 8.53646 12.8502 8.29557C12.8502 8.05469 12.7687 7.85277 12.6058 7.68981C12.4428 7.52686 12.2409 7.44538 12 7.44538C11.7591 7.44538 11.5572 7.52686 11.3942 7.68981C11.2313 7.85277 11.1498 8.05469 11.1498 8.29557C11.1498 8.53646 11.2313 8.73839 11.3942 8.90133C11.5572 9.06428 11.7591 9.14576 12 9.14576ZM12.0018 22C10.6187 22 9.31863 21.7375 8.10165 21.2126C6.88464 20.6877 5.82603 19.9753 4.9258 19.0755C4.02555 18.1757 3.31285 17.1175 2.78771 15.9011C2.26257 14.6846 2 13.3849 2 12.0018C2 10.6187 2.26246 9.31863 2.78737 8.10165C3.31228 6.88464 4.02465 5.82603 4.92448 4.9258C5.82433 4.02555 6.88248 3.31286 8.09894 2.78771C9.31538 2.26257 10.6151 2 11.9982 2C13.3813 2 14.6814 2.26246 15.8984 2.78737C17.1154 3.31229 18.174 4.02465 19.0742 4.92448C19.9744 5.82433 20.6871 6.88248 21.2123 8.09894C21.7374 9.31538 22 10.6151 22 11.9982C22 13.3813 21.7375 14.6814 21.2126 15.8984C20.6877 17.1154 19.9753 18.174 19.0755 19.0742C18.1757 19.9744 17.1175 20.6871 15.9011 21.2123C14.6846 21.7374 13.3849 22 12.0018 22Z" fill="black"/>
</g>
</svg>
