<svg width="15" height="15" viewBox="0 0 15 15" fill="none" xmlns="http://www.w3.org/2000/svg">
<path d="M5.23786 11.6143H9.48887C9.667 11.6143 9.82869 11.5723 9.97394 11.4883C10.1192 11.4043 10.2237 11.2813 10.2874 11.1194L11.7935 7.61538C11.8249 7.53441 11.8484 7.45596 11.8641 7.38004C11.8798 7.30413 11.8876 7.23076 11.8876 7.15991V6.66497C11.8876 6.49696 11.8335 6.35881 11.7252 6.25052C11.6169 6.14221 11.4787 6.08806 11.3107 6.08806H7.45139L7.91106 3.60187C7.9366 3.47998 7.92963 3.36489 7.89016 3.25659C7.85068 3.1483 7.78995 3.05316 7.70797 2.97117L7.34816 2.61137L4.29354 5.92105C4.21358 6.00318 4.15362 6.09558 4.11364 6.19823C4.07366 6.30089 4.05366 6.41598 4.05366 6.54351V10.4302C4.05366 10.7558 4.16962 11.0346 4.40152 11.2665C4.63343 11.4984 4.91221 11.6143 5.23786 11.6143ZM7.50132 15C6.464 15 5.48898 14.8032 4.57624 14.4095C3.66348 14.0158 2.86952 13.4815 2.19435 12.8066C1.51916 12.1318 0.984641 11.3381 0.590785 10.4258C0.196928 9.51347 0 8.53864 0 7.50132C0 6.464 0.196843 5.48898 0.590528 4.57624C0.984213 3.66348 1.51849 2.86952 2.19336 2.19435C2.86824 1.51916 3.66186 0.984642 4.5742 0.590785C5.48653 0.196929 6.46136 0 7.49868 0C8.536 0 9.51103 0.196843 10.4238 0.590529C11.3365 0.984214 12.1305 1.51849 12.8057 2.19336C13.4808 2.86824 14.0154 3.66186 14.4092 4.5742C14.8031 5.48653 15 6.46136 15 7.49868C15 8.536 14.8032 9.51102 14.4095 10.4238C14.0158 11.3365 13.4815 12.1305 12.8066 12.8057C12.1318 13.4808 11.3381 14.0154 10.4258 14.4092C9.51347 14.8031 8.53864 15 7.50132 15Z" fill="#2D4C44"/>
</svg>
