<svg width="24" height="24" viewBox="0 0 24 24" fill="none" xmlns="http://www.w3.org/2000/svg">
<mask id="mask0_22_407" style="mask-type:alpha" maskUnits="userSpaceOnUse" x="0" y="0" width="24" height="24">
<rect width="24" height="24" fill="#D9D9D9"/>
</mask>
<g mask="url(#mask0_22_407)">
<path d="M12.8574 19.829H11.9145C9.43243 19.829 7.32617 18.964 5.59571 17.2339C3.86524 15.5039 3 13.3981 3 10.9166C3 8.43515 3.86511 6.32868 5.59532 4.59722C7.32554 2.86574 9.43151 2 11.9132 2C13.1541 2 14.3135 2.2318 15.3913 2.69539C16.4692 3.15896 17.4132 3.79576 18.2232 4.60577C19.0332 5.4158 19.67 6.35907 20.1336 7.43557C20.5972 8.51205 20.829 9.67169 20.829 10.9145C20.829 13.146 20.2315 15.2278 19.0364 17.1599C17.8414 19.0921 16.3189 20.6547 14.4689 21.8476C14.2974 21.9369 14.1278 21.987 13.9599 21.9981C13.7921 22.0092 13.6339 21.9718 13.4853 21.8861C13.3367 21.8004 13.2121 21.6886 13.1113 21.5508C13.0106 21.4129 12.9546 21.249 12.9431 21.059L12.8574 19.829ZM11.9204 16.7903C12.1922 16.7903 12.4234 16.6944 12.6141 16.5026C12.8049 16.3108 12.9002 16.079 12.9002 15.8072C12.9002 15.5355 12.8043 15.3042 12.6125 15.1135C12.4207 14.9228 12.1889 14.8275 11.9171 14.8275C11.6454 14.8275 11.4141 14.9234 11.2234 15.1152C11.0327 15.307 10.9373 15.5388 10.9373 15.8106C10.9373 16.0823 11.0332 16.3135 11.2251 16.5043C11.4169 16.695 11.6487 16.7903 11.9204 16.7903ZM9.5515 8.45013C9.71822 8.52155 9.88475 8.52225 10.0511 8.45222C10.2175 8.38218 10.3536 8.26934 10.4594 8.11369C10.6194 7.87654 10.8252 7.69047 11.0766 7.55547C11.328 7.42047 11.6145 7.35297 11.9359 7.35297C12.4324 7.35297 12.8359 7.48726 13.1462 7.75582C13.4565 8.02441 13.6117 8.37797 13.6117 8.81651C13.6117 9.088 13.5403 9.34981 13.3974 9.60197C13.2545 9.85412 13.0067 10.1566 12.6538 10.5095C12.1824 10.9466 11.8388 11.3391 11.6231 11.687C11.4074 12.0349 11.2995 12.3802 11.2995 12.7231C11.2995 12.9075 11.3629 13.0651 11.4896 13.1957C11.6164 13.3264 11.7692 13.3917 11.9482 13.3917C12.1272 13.3917 12.2766 13.3242 12.3966 13.1892C12.5166 13.0542 12.5995 12.8931 12.6452 12.706C12.7095 12.4331 12.8552 12.1613 13.0823 11.8906C13.3095 11.6199 13.5502 11.3574 13.8045 11.1031C14.2088 10.6988 14.5049 10.3064 14.6927 9.9259C14.8806 9.54541 14.9746 9.16493 14.9746 8.78445C14.9746 7.97523 14.6963 7.32434 14.1399 6.83178C13.5835 6.33923 12.8559 6.09296 11.9574 6.09296C11.387 6.09296 10.8612 6.23154 10.3799 6.50868C9.89864 6.78583 9.52126 7.14213 9.24779 7.57759C9.15127 7.75499 9.13229 7.92691 9.19085 8.09335C9.24943 8.25977 9.36964 8.3787 9.5515 8.45013Z" fill="#333333"/>
</g>
</svg>
