<svg width="24" height="24" viewBox="0 0 24 24" fill="none" xmlns="http://www.w3.org/2000/svg">
<mask id="mask0_1_173" style="mask-type:alpha" maskUnits="userSpaceOnUse" x="0" y="0" width="24" height="24">
<rect width="24" height="24" fill="#D9D9D9"/>
</mask>
<g mask="url(#mask0_1_173)">
<path d="M6.32576 22C5.73692 22 5.23284 21.7903 4.81352 21.371C4.39418 20.9517 4.18451 20.4476 4.18451 19.8588V4.82456H3.88839C3.63668 4.82456 3.42568 4.73939 3.25541 4.56903C3.08514 4.3987 3 4.18762 3 3.93579C3 3.68399 3.08514 3.47304 3.25541 3.30297C3.42568 3.13287 3.63668 3.04782 3.88839 3.04782H8.33029C8.33029 2.75777 8.43241 2.51062 8.63666 2.30638C8.84091 2.10213 9.08806 2 9.37811 2H14.3896C14.6796 2 14.9268 2.10213 15.131 2.30638C15.3352 2.51062 15.4374 2.75777 15.4374 3.04782H19.8793C20.131 3.04782 20.342 3.133 20.5123 3.30335C20.6825 3.4737 20.7677 3.68478 20.7677 3.93659C20.7677 4.18842 20.6825 4.39937 20.5123 4.56945C20.342 4.73953 20.131 4.82456 19.8793 4.82456H19.5831V19.8588C19.5831 20.4476 19.3735 20.9517 18.9541 21.371C18.5348 21.7903 18.0307 22 17.4419 22H6.32576ZM9.69745 17.8542C9.94926 17.8542 10.1602 17.7691 10.3303 17.5988C10.5004 17.4285 10.5854 17.2176 10.5854 16.9659V8.08195C10.5854 7.83026 10.5002 7.61928 10.3299 7.44901C10.1595 7.27873 9.94846 7.19359 9.69665 7.19359C9.44483 7.19359 9.23387 7.27873 9.0638 7.44901C8.89372 7.61928 8.80868 7.83026 8.80868 8.08195V16.9659C8.80868 17.2176 8.89386 17.4285 9.06421 17.5988C9.23455 17.7691 9.44563 17.8542 9.69745 17.8542ZM14.071 17.8542C14.3228 17.8542 14.5338 17.7691 14.7039 17.5988C14.8739 17.4285 14.959 17.2176 14.959 16.9659V8.08195C14.959 7.83026 14.8738 7.61928 14.7035 7.44901C14.5331 7.27873 14.322 7.19359 14.0702 7.19359C13.8184 7.19359 13.6075 7.27873 13.4374 7.44901C13.2673 7.61928 13.1822 7.83026 13.1822 8.08195V16.9659C13.1822 17.2176 13.2674 17.4285 13.4378 17.5988C13.6081 17.7691 13.8192 17.8542 14.071 17.8542Z" fill="white"/>
</g>
</svg>
