<svg width="15" height="15" viewBox="0 0 15 15" fill="none" xmlns="http://www.w3.org/2000/svg">
<path d="M7.50341 11.5992C8.17321 11.5992 8.80542 11.4479 9.40005 11.1452C9.99468 10.8426 10.4752 10.4119 10.8416 9.85323C10.956 9.68015 10.9694 9.50783 10.8818 9.33628C10.7943 9.16473 10.6549 9.07895 10.4636 9.07895C10.3853 9.07895 10.3144 9.09692 10.2508 9.13285C10.1872 9.16877 10.1341 9.22014 10.0916 9.28694C9.78898 9.71509 9.41144 10.0506 8.95901 10.2935C8.50659 10.5364 8.02025 10.6579 7.5 10.6579C6.97975 10.6579 6.49341 10.5364 6.04099 10.2935C5.58855 10.0506 5.21102 9.71509 4.90839 9.28694C4.85778 9.22014 4.80068 9.16877 4.73709 9.13285C4.6735 9.09692 4.60256 9.07895 4.52429 9.07895C4.333 9.07895 4.19358 9.16144 4.10602 9.32641C4.01847 9.49139 4.03189 9.65889 4.14627 9.82893C4.51266 10.3957 4.99318 10.8325 5.58781 11.1392C6.18244 11.4458 6.82098 11.5992 7.50341 11.5992ZM10.189 6.55869C10.4763 6.55869 10.7199 6.45814 10.9198 6.25705C11.1197 6.05597 11.2196 5.81179 11.2196 5.52451C11.2196 5.23725 11.1191 4.99367 10.918 4.79378C10.7169 4.59388 10.4727 4.49393 10.1855 4.49393C9.8982 4.49393 9.65462 4.59448 9.45472 4.79557C9.25481 4.99665 9.15486 5.24083 9.15486 5.52811C9.15486 5.81537 9.25541 6.05895 9.4565 6.25885C9.65759 6.45874 9.90177 6.55869 10.189 6.55869ZM4.81454 6.55869C5.1018 6.55869 5.34538 6.45814 5.54528 6.25705C5.74519 6.05597 5.84514 5.81179 5.84514 5.52451C5.84514 5.23725 5.74459 4.99367 5.5435 4.79378C5.34241 4.59388 5.09823 4.49393 4.81097 4.49393C4.5237 4.49393 4.28012 4.59448 4.08021 4.79557C3.88031 4.99665 3.78036 5.24083 3.78036 5.52811C3.78036 5.81537 3.88091 6.05895 4.082 6.25885C4.2831 6.45874 4.52728 6.55869 4.81454 6.55869ZM7.50132 15C6.464 15 5.48898 14.8032 4.57624 14.4095C3.66348 14.0158 2.86952 13.4815 2.19435 12.8066C1.51916 12.1318 0.984641 11.3381 0.590785 10.4258C0.196928 9.51347 0 8.53864 0 7.50132C0 6.464 0.196843 5.48898 0.590528 4.57624C0.984213 3.66348 1.51849 2.86952 2.19336 2.19435C2.86824 1.51916 3.66186 0.984642 4.5742 0.590785C5.48653 0.196929 6.46136 0 7.49868 0C8.536 0 9.51103 0.196843 10.4238 0.590529C11.3365 0.984214 12.1305 1.51849 12.8057 2.19336C13.4808 2.86824 14.0154 3.66186 14.4092 4.5742C14.8031 5.48653 15 6.46136 15 7.49868C15 8.536 14.8032 9.51102 14.4095 10.4238C14.0158 11.3365 13.4815 12.1305 12.8066 12.8057C12.1318 13.4808 11.3381 14.0154 10.4258 14.4092C9.51347 14.8031 8.53864 15 7.50132 15Z" fill="#969696"/>
</svg>
