<svg width="24" height="24" viewBox="0 0 24 24" fill="none" xmlns="http://www.w3.org/2000/svg">
<mask id="mask0_22_370" style="mask-type:alpha" maskUnits="userSpaceOnUse" x="0" y="0" width="24" height="24">
<rect width="24" height="24" fill="#D9D9D9"/>
</mask>
<g mask="url(#mask0_22_370)">
<path d="M4.12671 22C3.53244 22 3.02941 21.7941 2.61765 21.3824C2.20588 20.9706 2 20.4676 2 19.8733V4.12671C2 3.53244 2.20588 3.02941 2.61765 2.61765C3.02941 2.20588 3.53244 2 4.12671 2H19.8733C20.4676 2 20.9706 2.20588 21.3824 2.61765C21.7941 3.02941 22 3.53244 22 4.12671V19.8733C22 20.4676 21.7941 20.9706 21.3824 21.3824C20.9706 21.7941 20.4676 22 19.8733 22H4.12671ZM7.2941 17.5882H13.1765C13.4265 17.5882 13.636 17.5036 13.8052 17.3345C13.9742 17.1653 14.0588 16.9556 14.0588 16.7055C14.0588 16.4554 13.9742 16.2459 13.8052 16.077C13.636 15.908 13.4265 15.8236 13.1765 15.8236H7.2941C7.0441 15.8236 6.83455 15.9082 6.66545 16.0773C6.49634 16.2465 6.41178 16.4562 6.41178 16.7063C6.41178 16.9564 6.49634 17.1659 6.66545 17.3348C6.83455 17.5038 7.0441 17.5882 7.2941 17.5882ZM7.2941 12.8823H16.7059C16.9559 12.8823 17.1655 12.7977 17.3346 12.6286C17.5037 12.4594 17.5882 12.2497 17.5882 11.9996C17.5882 11.7495 17.5037 11.54 17.3346 11.3711C17.1655 11.2021 16.9559 11.1177 16.7059 11.1177H7.2941C7.0441 11.1177 6.83455 11.2023 6.66545 11.3714C6.49634 11.5406 6.41178 11.7503 6.41178 12.0004C6.41178 12.2505 6.49634 12.46 6.66545 12.6289C6.83455 12.7979 7.0441 12.8823 7.2941 12.8823ZM7.2941 8.17643H16.7059C16.9559 8.17643 17.1655 8.09184 17.3346 7.92266C17.5037 7.75347 17.5882 7.54382 17.5882 7.29372C17.5882 7.0436 17.5037 6.83408 17.3346 6.66516C17.1655 6.49624 16.9559 6.41178 16.7059 6.41178H7.2941C7.0441 6.41178 6.83455 6.49637 6.66545 6.66554C6.49634 6.83474 6.41178 7.04439 6.41178 7.29449C6.41178 7.5446 6.49634 7.75412 6.66545 7.92305C6.83455 8.09197 7.0441 8.17643 7.2941 8.17643Z" fill="#333333"/>
</g>
</svg>
