<svg width="24" height="24" viewBox="0 0 24 24" fill="none" xmlns="http://www.w3.org/2000/svg">
<mask id="mask0_20_334" style="mask-type:alpha" maskUnits="userSpaceOnUse" x="0" y="0" width="24" height="24">
<rect width="24" height="24" fill="#D9D9D9"/>
</mask>
<g mask="url(#mask0_20_334)">
<path d="M3 20.1755V9.4152C3 9.06705 3.07788 8.73723 3.23364 8.42573C3.38939 8.11424 3.60469 7.85771 3.87953 7.65616L10.8035 2.43978C11.1878 2.14659 11.6269 2 12.1209 2C12.615 2 13.0553 2.14659 13.4421 2.43978L20.3661 7.65616C20.6409 7.85771 20.8562 8.11424 21.012 8.42573C21.1677 8.73723 21.2456 9.06705 21.2456 9.4152V20.1755C21.2456 20.6729 21.0659 21.1014 20.7064 21.4608C20.347 21.8203 19.9185 22 19.4211 22H15.538C15.2265 22 14.9654 21.8946 14.7547 21.6839C14.544 21.4732 14.4386 21.2121 14.4386 20.9006V14.9591C14.4386 14.6475 14.3332 14.3864 14.1225 14.1757C13.9118 13.965 13.6507 13.8596 13.3392 13.8596H10.9064C10.5949 13.8596 10.3338 13.965 10.1231 14.1757C9.91237 14.3864 9.80701 14.6475 9.80701 14.9591V20.9006C9.80701 21.2121 9.70165 21.4732 9.49093 21.6839C9.28021 21.8946 9.01911 22 8.70761 22H4.82454C4.32708 22 3.89863 21.8203 3.53919 21.4608C3.17973 21.1014 3 20.6729 3 20.1755Z" fill="#333333"/>
</g>
</svg>
