<svg width="24" height="24" viewBox="0 0 24 24" fill="none" xmlns="http://www.w3.org/2000/svg">
<mask id="mask0_22_425" style="mask-type:alpha" maskUnits="userSpaceOnUse" x="0" y="0" width="24" height="24">
<rect width="24" height="24" fill="#D9D9D9"/>
</mask>
<g mask="url(#mask0_22_425)">
<path d="M4.12671 22C3.53244 22 3.02941 21.7941 2.61765 21.3824C2.20588 20.9706 2 20.4676 2 19.8733V4.12671C2 3.53244 2.20588 3.02941 2.61765 2.61765C3.02941 2.20588 3.53244 2 4.12671 2H11.129C11.3793 2 11.589 2.08447 11.7579 2.25341C11.9269 2.42234 12.0113 2.63198 12.0113 2.88236C12.0113 3.13273 11.9269 3.34238 11.7579 3.5113C11.589 3.68022 11.3793 3.76468 11.129 3.76468H4.12671C4.0362 3.76468 3.95323 3.80239 3.8778 3.8778C3.80239 3.95323 3.76468 4.0362 3.76468 4.12671V19.8733C3.76468 19.9638 3.80239 20.0468 3.8778 20.1222C3.95323 20.1976 4.0362 20.2353 4.12671 20.2353H11.129C11.3793 20.2353 11.589 20.3198 11.7579 20.4887C11.9269 20.6576 12.0113 20.8673 12.0113 21.1176C12.0113 21.368 11.9269 21.5777 11.7579 21.7466C11.589 21.9155 11.3793 22 11.129 22H4.12671ZM18.6087 12.8823H9.46605C9.21568 12.8823 9.00603 12.7979 8.83711 12.6289C8.66817 12.46 8.58369 12.2504 8.58369 12C8.58369 11.7496 8.66817 11.54 8.83711 11.3711C9.00603 11.2021 9.21568 11.1177 9.46605 11.1177H18.6087L16.3462 8.85523C16.1833 8.69232 16.1 8.49361 16.0962 8.25908C16.0924 8.02455 16.1758 7.81603 16.3462 7.63352C16.5166 7.45103 16.7233 7.35676 16.9661 7.35072C17.2089 7.34468 17.4216 7.43292 17.6041 7.61543L21.2443 11.2557C21.457 11.4683 21.5633 11.7164 21.5633 12C21.5633 12.2835 21.457 12.5317 21.2443 12.7443L17.6041 16.3846C17.4291 16.5595 17.2214 16.6459 16.9808 16.6436C16.7402 16.6414 16.5287 16.549 16.3462 16.3665C16.1758 16.184 16.0936 15.9743 16.0996 15.7375C16.1056 15.5007 16.1939 15.2971 16.3643 15.1267L18.6087 12.8823Z" fill="#FF0000"/>
</g>
</svg>
