<svg width="24" height="17" viewBox="0 0 24 17" fill="none" xmlns="http://www.w3.org/2000/svg">
<rect x="0.25" y="0.25" width="23.5" height="15.5892" rx="1.75" fill="white" stroke="#C9C9C9" stroke-width="0.5"/>
<path d="M21.9848 8.04221C21.9848 11.4303 19.3553 14.1993 16.0686 14.1993C12.8131 14.1993 10.1523 11.4303 10.1523 8.04221C10.1523 4.65415 12.7818 1.88507 16.0372 1.88507C19.3553 1.88507 21.9848 4.65415 21.9848 8.04221Z" fill="#FFB600"/>
<path d="M16.0686 1.88507C19.324 1.88507 21.9848 4.65415 21.9848 8.04221C21.9848 11.4303 19.3553 14.1993 16.0686 14.1993C12.8131 14.1993 10.1523 11.4303 10.1523 8.04221" fill="#F7981D"/>
<path d="M16.0684 1.88507C19.3238 1.88507 21.9846 4.65415 21.9846 8.04221C21.9846 11.4303 19.3551 14.1993 16.0684 14.1993" fill="#FF8500"/>
<path d="M8.11776 1.88507C4.89359 1.91765 2.26416 4.65415 2.26416 8.04221C2.26416 11.4303 4.89359 14.1993 8.18037 14.1993C9.7142 14.1993 11.0915 13.5804 12.1558 12.6031C12.4186 12.3686 12.2197 11.9515 11.8675 11.9515H11.6876C11.5878 11.9515 11.4923 11.9056 11.4323 11.8258C11.2761 11.6183 11.4326 11.3325 11.6924 11.3325H12.991C13.1142 11.3325 13.2267 11.2754 13.2889 11.1689C13.4187 10.9466 13.2505 10.681 12.9931 10.681H10.9737C10.8353 10.681 10.7111 10.6092 10.6569 10.4818C10.5639 10.263 10.7314 10.0294 10.9692 10.0294H12.5764C13.2747 10.0294 13.9136 9.57501 14.0088 8.88313C14.0451 8.61894 14.0653 8.34949 14.0653 8.07479C14.0653 7.32199 13.3825 6.77169 12.6297 6.77169H10.7118C10.4988 6.77169 10.3367 6.58751 10.3924 6.38193C10.4339 6.22925 10.5751 6.12014 10.7333 6.12014H13.2486C13.4863 6.12014 13.6538 5.88661 13.5608 5.66782C13.5066 5.54038 13.3825 5.46859 13.244 5.46859H11.244C10.9923 5.46859 10.8295 5.22343 10.9543 5.00482C11.0183 4.89274 11.1404 4.81704 11.2695 4.81704H12.5142C12.8036 4.81704 12.9844 4.50825 12.7976 4.28724C12.7307 4.20813 12.6294 4.16549 12.5258 4.16549H12.1006C11.8729 4.16549 11.7513 3.90457 11.9132 3.74459C12.0243 3.63496 12.0302 3.45344 11.9131 3.35034C10.9239 2.4793 9.63475 1.97131 8.23691 1.95087C8.18845 1.95016 8.16623 1.88507 8.11776 1.88507Z" fill="#FF5050"/>
<path d="M2.26416 8.04212C2.26416 11.4302 4.89359 14.1993 8.18037 14.1993C9.7142 14.1993 11.0915 13.5803 12.1558 12.603C12.4186 12.3685 12.2197 11.9514 11.8675 11.9514H11.6876C11.5878 11.9514 11.4923 11.9055 11.4323 11.8258C11.2761 11.6182 11.4326 11.3324 11.6924 11.3324H12.991C13.1142 11.3324 13.2267 11.2753 13.2889 11.1688C13.4187 10.9465 13.2505 10.6809 12.9931 10.6809H10.9737C10.8353 10.6809 10.7111 10.6091 10.6569 10.4817C10.5639 10.2629 10.7314 10.0293 10.9692 10.0293H12.5764C13.2747 10.0293 13.9136 9.57492 14.0088 8.88304C14.0451 8.61885 14.0653 8.3494 14.0653 8.0747C14.0653 7.3219 13.3825 6.7716 12.6297 6.7716H10.7118C10.4988 6.7716 10.3367 6.58742 10.3924 6.38184C10.4339 6.22916 10.5751 6.12005 10.7333 6.12005H13.2486C13.4863 6.12005 13.6538 5.88652 13.5608 5.66773C13.5066 5.54029 13.3825 5.4685 13.244 5.4685H11.244C10.9923 5.4685 10.8295 5.22334 10.9543 5.00473C11.0183 4.89265 11.1404 4.81695 11.2695 4.81695H12.5142C12.8036 4.81695 12.9844 4.50816 12.7976 4.28715C12.7307 4.20804 12.6294 4.1654 12.5258 4.1654H12.1006C11.8729 4.1654 11.7513 3.90447 11.9132 3.7445C12.0243 3.63487 12.0302 3.45335 11.9131 3.35025C10.9032 2.46099 9.5807 1.95013 8.14907 1.95013H8.11776" fill="#E52836"/>
<path d="M8.18028 14.1993C9.71411 14.1993 11.0914 13.5803 12.1557 12.603C12.4185 12.3685 12.2196 11.9514 11.8674 11.9514H11.6875C11.5878 11.9514 11.4923 11.9055 11.4322 11.8258C11.276 11.6182 11.4325 11.3324 11.6923 11.3324H12.9909C13.1142 11.3324 13.2267 11.2753 13.2888 11.1688C13.4186 10.9465 13.2504 10.6809 12.993 10.6809H10.9736C10.8352 10.6809 10.711 10.6091 10.6569 10.4817C10.5638 10.2629 10.7313 10.0293 10.9691 10.0293H12.5763C13.2747 10.0293 13.9136 9.57492 14.0087 8.88304C14.045 8.61885 14.0652 8.3494 14.0652 8.0747C14.0652 7.3219 13.3824 6.7716 12.6296 6.7716H10.7117C10.4987 6.7716 10.3366 6.58742 10.3924 6.38184C10.4338 6.22916 10.575 6.12005 10.7332 6.12005H13.2485C13.4862 6.12005 13.6537 5.88652 13.5607 5.66773C13.5065 5.54029 13.3824 5.4685 13.2439 5.4685H11.2439C10.9922 5.4685 10.8294 5.22334 10.9542 5.00473C11.0183 4.89265 11.1403 4.81695 11.2694 4.81695H12.5141C12.8036 4.81695 12.9843 4.50816 12.7975 4.28715C12.7306 4.20804 12.6293 4.1654 12.5257 4.1654H12.1005C11.8729 4.1654 11.7512 3.90447 11.9132 3.7445C12.0242 3.63487 12.0301 3.45335 11.913 3.35025C10.9032 2.46099 9.58061 1.95013 8.14898 1.95013H8.11768" fill="#CB2026"/>
<path d="M10.1232 9.66643C10.2237 9.63714 10.288 9.5453 10.3055 9.4421L10.3448 9.21031C10.3588 9.12759 10.299 9.0847 10.2151 9.0847C10.1305 9.0847 10.0739 9.06528 10.0381 9.03768C9.95038 8.97011 10.0051 8.83378 10.0231 8.72455L10.156 7.91781C10.172 7.82045 10.2562 7.74902 10.3548 7.74902C10.4545 7.74902 10.5391 7.67622 10.5541 7.57771L10.5986 7.28415C10.6109 7.20306 10.5482 7.13005 10.4661 7.13005C10.3837 7.13005 10.3208 7.05628 10.3338 6.97486L10.3403 6.93458C10.3567 6.83203 10.2775 6.73912 10.1736 6.73912H10.0069C9.85578 6.73912 9.72666 6.84728 9.70107 6.99619C9.60163 7.57483 9.3699 8.94515 9.3699 9.14985C9.3699 9.54078 9.58902 9.70367 9.87074 9.70367C9.96555 9.70367 10.0524 9.68706 10.1232 9.66643ZM10.4968 8.56346C10.4968 9.47563 11.0915 9.70367 11.5924 9.70367C11.8569 9.70367 12.032 9.67264 12.1345 9.64556C12.2091 9.62584 12.2586 9.56198 12.2739 9.48634C12.3156 9.2803 12.0969 9.1034 11.8892 9.13566C11.8324 9.14447 11.7745 9.14985 11.7176 9.14985C11.6116 9.14985 11.5248 9.13749 11.4539 9.11658C11.0962 9.01104 11.4171 8.62861 11.7901 8.62861H11.843C12.1904 8.62861 12.5315 8.38958 12.5315 8.04222C12.5315 7.61871 12.3124 7.09747 11.6237 7.09747C10.9663 7.03232 10.4968 7.74902 10.4968 8.56346ZM11.5924 7.61871C11.7129 7.61871 11.7836 7.6706 11.8245 7.73945C11.9217 7.9029 11.72 8.0748 11.5298 8.0748C11.3396 8.0748 11.1916 7.90726 11.3094 7.75803C11.371 7.68015 11.4612 7.61871 11.5924 7.61871ZM15.4006 9.64705C15.5035 9.62448 15.5794 9.53998 15.5975 9.43621C15.6366 9.21229 15.3882 9.05212 15.1609 9.05212C14.7227 9.05212 14.5348 8.69377 14.5348 8.30284C14.5348 7.52098 14.9105 7.09747 15.3487 7.09747C15.3916 7.09747 15.4333 7.10114 15.4734 7.10747C15.684 7.14078 15.9485 7.02804 15.9775 6.81673C15.9944 6.6938 15.9273 6.57465 15.8088 6.53763C15.6686 6.49379 15.4728 6.44592 15.2861 6.44592C14.5661 6.44592 13.8462 7.09747 13.8462 8.33542C13.8462 9.14985 14.2218 9.70367 14.9731 9.70367C15.1116 9.70367 15.2788 9.67377 15.4006 9.64705ZM6.83438 7.03232C6.55875 7.03232 6.33265 7.08386 6.20281 7.12212C6.12729 7.14437 6.07513 7.20971 6.06197 7.28733C6.03113 7.46921 6.22594 7.63077 6.40861 7.60506C6.4897 7.59364 6.58018 7.58613 6.67787 7.58613C6.89699 7.58613 7.0848 7.61871 7.0848 7.81418C7.0848 7.92155 6.99281 7.97706 6.88543 7.97706H6.77178C6.23963 7.97706 5.64488 8.20511 5.64488 8.95439C5.64488 9.54078 6.02051 9.67109 6.23963 9.67109C6.52085 9.67109 6.69895 9.55036 6.79874 9.46384C6.85149 9.41811 6.88966 9.4389 6.88133 9.5082C6.87301 9.57751 6.92712 9.63851 6.99693 9.63851H7.18371C7.32442 9.63851 7.44362 9.53482 7.4631 9.39545L7.67955 7.84675C7.67955 7.06489 7.0535 7.03232 6.83438 7.03232ZM6.8712 8.47789C6.92971 8.49613 6.95851 8.54802 6.94877 8.60853C6.91899 8.79358 6.81737 9.11727 6.52135 9.11727C6.33354 9.11727 6.27093 8.95439 6.27093 8.85665C6.27093 8.69598 6.3623 8.47192 6.81541 8.46585C6.82779 8.46569 6.85938 8.4742 6.8712 8.47789ZM8.2743 9.67109C8.43082 9.67109 9.21339 9.70367 9.21339 8.82408C9.21339 8.00964 8.46212 8.17253 8.46212 7.84675C8.46212 7.68387 8.58733 7.61871 8.80645 7.61871C8.83404 7.61871 8.88325 7.62152 8.93899 7.6255C9.11106 7.63776 9.26591 7.51875 9.29319 7.34841C9.31917 7.1862 9.21948 7.03301 9.05612 7.01568C8.96968 7.0065 8.86489 6.99974 8.74384 6.99974C8.2743 6.99974 7.80476 7.1952 7.80476 7.84675C7.80476 8.59603 8.58733 8.53088 8.58733 8.82408C8.58733 9.01954 8.36821 9.05212 8.2117 9.05212C8.17701 9.05212 8.14231 9.05064 8.10814 9.04804C7.86349 9.02943 7.61266 9.1766 7.57387 9.41887C7.56115 9.49824 7.57743 9.58287 7.65317 9.60979C7.75286 9.64523 7.93903 9.67109 8.2743 9.67109ZM21.0102 6.52328C20.8708 6.51637 20.749 6.61684 20.7293 6.75507C20.6956 6.99194 20.3396 7.09274 20.1016 7.0679C20.0828 7.06594 20.0636 7.06489 20.0441 7.06489C19.4807 7.06489 18.9798 7.7816 18.9798 8.62861C18.9798 9.14985 19.2302 9.70367 19.7624 9.70367C19.967 9.70367 20.1252 9.62632 20.2268 9.55589C20.268 9.52736 20.3404 9.5647 20.3336 9.61433C20.3295 9.64435 20.3528 9.67109 20.3831 9.67109H20.6834C20.8377 9.67109 20.9688 9.55819 20.9918 9.40556L21.3679 6.90018C21.3966 6.70928 21.2542 6.53536 21.0613 6.52581L21.0102 6.52328ZM20.4824 8.23768C20.4824 8.59603 20.3258 9.05212 19.9815 9.05212C19.7624 9.05212 19.6372 8.85665 19.6372 8.53088C19.6372 8.00964 19.8563 7.68387 20.138 7.68387C20.3571 7.68387 20.4824 7.84675 20.4824 8.23768ZM3.24786 9.63851C3.34842 9.63851 3.43408 9.56547 3.44999 9.46618L3.45779 9.41744C3.49624 9.17734 3.84894 9.20068 3.85543 9.44374C3.85832 9.55214 3.94703 9.63851 4.05547 9.63851H4.14261C4.23615 9.63851 4.31942 9.57927 4.35008 9.4909L4.41214 9.31205C4.49238 9.08079 4.83787 9.16529 4.80232 9.40748C4.78444 9.52925 4.87883 9.63851 5.00191 9.63851H5.14694C5.30759 9.63851 5.44445 9.52183 5.46985 9.3632L5.82571 7.1411C5.87864 6.81055 5.62331 6.51108 5.28855 6.51108H5.11233C4.98189 6.51108 4.86627 6.59502 4.82588 6.71904L4.77885 6.86342C4.68238 7.15958 4.24575 7.09391 4.24068 6.78247C4.23822 6.63188 4.11544 6.51108 3.96483 6.51108H3.74993C3.5071 6.51108 3.30023 6.68745 3.26184 6.92722L2.8821 9.29845C2.85352 9.47687 2.99134 9.63851 3.17204 9.63851H3.24786ZM13.1262 9.64111C13.1262 9.63938 13.1264 9.63764 13.1267 9.63594C13.2569 8.88974 13.3119 8.2381 13.4802 7.96449C13.5773 7.80678 13.8064 7.6732 13.8559 7.49476C13.8888 7.37611 13.9235 7.28915 13.9552 7.21327C13.9784 7.15757 13.9378 7.09747 13.8775 7.09747C13.7569 7.09747 13.6478 7.16907 13.5624 7.25099C13.5206 7.29117 13.4187 7.24769 13.4287 7.19051C13.4342 7.15895 13.4099 7.13005 13.3779 7.13005H13.0928C12.9497 7.13005 12.8279 7.23395 12.8052 7.3752L12.4963 9.30404C12.4655 9.49662 12.6143 9.67109 12.8093 9.67109H13.0962C13.1128 9.67109 13.1262 9.65767 13.1262 9.64111ZM17.0078 7.03232C16.7321 7.03232 16.506 7.08386 16.3762 7.12212C16.3007 7.14437 16.2485 7.20971 16.2353 7.28733C16.2045 7.46921 16.3993 7.63077 16.582 7.60506C16.6631 7.59364 16.7536 7.58613 16.8512 7.58613C17.0704 7.58613 17.2582 7.61871 17.2582 7.81418C17.2582 7.92155 17.1662 7.97706 17.0588 7.97706H16.9451C16.413 7.97706 15.8183 8.20511 15.8183 8.95439C15.8183 9.54078 16.1939 9.67109 16.413 9.67109C16.6942 9.67109 16.8723 9.55036 16.9721 9.46384C17.0249 9.41811 17.063 9.4389 17.0547 9.5082C17.0464 9.57751 17.1005 9.63851 17.1703 9.63851H17.3571C17.4978 9.63851 17.617 9.53482 17.6365 9.39545L17.8529 7.84675C17.8842 7.06489 17.2269 7.03232 17.0078 7.03232ZM17.0742 8.47789C17.1324 8.49788 17.1632 8.54822 17.1534 8.60897C17.1235 8.79409 17.0218 9.11727 16.726 9.11727C16.5382 9.11727 16.4756 8.95439 16.4756 8.85665C16.4756 8.69599 16.567 8.47195 17.02 8.46585C17.0324 8.46568 17.0624 8.47385 17.0742 8.47789ZM18.3851 9.64111C18.3851 9.63938 18.3852 9.63764 18.3855 9.63594C18.5157 8.88974 18.5707 8.2381 18.7391 7.96449C18.8361 7.80678 19.0652 7.6732 19.1147 7.49476C19.1476 7.37611 19.1824 7.28915 19.214 7.21327C19.2373 7.15757 19.1967 7.09747 19.1363 7.09747C19.0158 7.09747 18.9067 7.16907 18.8213 7.25099C18.7794 7.29117 18.6775 7.24769 18.6875 7.19051C18.6931 7.15895 18.6688 7.13005 18.6367 7.13005H18.3516C18.2086 7.13005 18.0867 7.23395 18.0641 7.3752L17.7552 9.30404C17.7244 9.49662 17.8731 9.67109 18.0681 9.67109H18.3551C18.3717 9.67109 18.3851 9.65767 18.3851 9.64111Z" fill="white"/>
<path d="M9.30729 9.14985C9.30729 9.54078 9.52641 9.70367 9.80814 9.70367C9.92675 9.70367 10.0362 9.68458 10.1216 9.6619C10.2227 9.63502 10.288 9.5453 10.3055 9.4421L10.3448 9.21031C10.3588 9.12759 10.299 9.0847 10.2151 9.0847C10.1305 9.0847 10.0739 9.06528 10.0381 9.03768C9.95038 8.97011 10.0051 8.83378 10.0231 8.72455L10.156 7.91781C10.172 7.82045 10.2562 7.74902 10.3548 7.74902C10.4545 7.74902 10.5391 7.67622 10.5541 7.57771L10.5986 7.28415C10.6109 7.20306 10.5482 7.13005 10.4661 7.13005C10.3837 7.13005 10.3208 7.05628 10.3338 6.97486L10.3716 6.73912M10.8098 8.56346C10.8098 9.47563 11.0915 9.70367 11.5924 9.70367C11.8569 9.70367 12.032 9.67264 12.1345 9.64556C12.2091 9.62584 12.2586 9.56198 12.2739 9.48634C12.3156 9.2803 12.0969 9.1034 11.8892 9.13566C11.8324 9.14447 11.7745 9.14985 11.7176 9.14985C11.6116 9.14985 11.5248 9.13749 11.4539 9.11658C11.0962 9.01104 11.4171 8.62861 11.7901 8.62861H11.843C12.1904 8.62861 12.5315 8.38958 12.5315 8.04222C12.5315 7.61871 12.3124 7.09747 11.6237 7.09747C10.9663 7.03232 10.8098 7.74902 10.8098 8.56346ZM11.5924 7.61871C11.6962 7.61871 11.7745 7.65723 11.8331 7.71193C11.9974 7.86528 11.8171 8.0748 11.5924 8.0748C11.3676 8.0748 11.1874 7.86528 11.3517 7.71193C11.4103 7.65723 11.4885 7.61871 11.5924 7.61871ZM15.4006 9.64705C15.5035 9.62448 15.5794 9.53998 15.5975 9.43621C15.6366 9.21229 15.3882 9.05212 15.1609 9.05212C14.7227 9.05212 14.5348 8.69377 14.5348 8.30284C14.5348 7.52098 14.9105 7.09747 15.3487 7.09747C15.3916 7.09747 15.4333 7.10114 15.4734 7.10747C15.684 7.14078 15.9485 7.02804 15.9775 6.81673C15.9944 6.6938 15.9273 6.57465 15.8088 6.53763C15.6686 6.49379 15.4728 6.44592 15.2861 6.44592C14.5661 6.44592 14.1592 7.09747 14.1592 8.33542C14.1592 9.14985 14.2218 9.70367 14.9731 9.70367C15.1116 9.70367 15.2788 9.67377 15.4006 9.64705ZM5.98921 7.74902C5.98921 7.74902 6.27093 7.61871 6.67787 7.61871C6.89699 7.61871 7.0848 7.65129 7.0848 7.84675C7.0848 7.95413 6.99281 8.00964 6.88543 8.00964H6.77178C6.23963 8.00964 5.64488 8.23768 5.64488 8.98696C5.64488 9.57336 6.02051 9.70367 6.23963 9.70367C6.52085 9.70367 6.69895 9.58293 6.79874 9.49642C6.85149 9.45069 6.88966 9.47147 6.88133 9.54078C6.87301 9.61009 6.92712 9.67109 6.99693 9.67109H7.18371C7.32442 9.67109 7.44362 9.56739 7.4631 9.42803L7.67955 7.87933C7.67955 7.13005 7.0535 7.09747 6.80308 7.09747M6.88885 8.47789C7.09457 8.5098 7.21127 8.65855 7.0697 8.81117C6.92607 8.96601 6.72371 9.11727 6.52135 9.11727C6.33354 9.11727 6.27093 8.95439 6.27093 8.85665C6.27093 8.70143 6.35622 8.48702 6.77062 8.46721C6.81262 8.4652 6.8473 8.47144 6.88885 8.47789ZM7.58565 9.60594C7.58565 9.60594 7.77346 9.67109 8.30561 9.67109C8.46212 9.67109 9.24469 9.70367 9.24469 8.82408C9.24469 8.00964 8.49342 8.17253 8.49342 7.84675C8.49342 7.68387 8.61863 7.61871 8.83775 7.61871C8.86534 7.61871 8.91455 7.62152 8.97029 7.6255C9.14237 7.63776 9.29722 7.51875 9.3245 7.34841C9.35047 7.1862 9.25078 7.03301 9.08742 7.01568C9.00098 7.0065 8.89619 6.99974 8.77515 6.99974C8.30561 6.99974 8.14909 7.1952 8.14909 7.84675C8.14909 8.59603 8.61863 8.53088 8.61863 8.82408C8.61863 9.01954 8.39952 9.05212 8.243 9.05212M20.6389 7.39067C20.6389 7.39067 20.3884 7.06489 20.0441 7.06489C19.4807 7.06489 19.2929 7.7816 19.2929 8.62861C19.2929 9.14985 19.2302 9.70367 19.7624 9.70367C19.967 9.70367 20.1252 9.62632 20.2268 9.55589C20.268 9.52736 20.3404 9.5647 20.3336 9.61433C20.3295 9.64435 20.3528 9.67109 20.3831 9.67109H20.6834C20.8377 9.67109 20.9688 9.55819 20.9918 9.40556L21.4214 6.54365M20.6076 8.23768C20.6076 8.59603 20.3258 9.05212 19.9815 9.05212C19.7624 9.05212 19.6372 8.85665 19.6372 8.53088C19.6372 8.00964 19.8563 7.68387 20.138 7.68387C20.3571 7.68387 20.6076 7.84675 20.6076 8.23768ZM3.24786 9.63851C3.34842 9.63851 3.43408 9.56547 3.44999 9.46618L3.45779 9.41744C3.49624 9.17734 3.84894 9.20068 3.85543 9.44374C3.85832 9.55214 3.94703 9.63851 4.05547 9.63851H4.14261C4.23615 9.63851 4.31942 9.57927 4.35008 9.4909L4.41214 9.31205C4.49238 9.08079 4.83787 9.16529 4.80232 9.40748C4.78444 9.52925 4.87883 9.63851 5.00191 9.63851H5.14694C5.30759 9.63851 5.44445 9.52183 5.46985 9.3632L5.84668 7.01016C5.88861 6.74831 5.68634 6.51108 5.42116 6.51108H5.41186C5.24872 6.51108 5.1006 6.60633 5.03291 6.75477L4.92017 7.002C4.76312 7.34641 4.24811 7.23891 4.24195 6.86044L4.2395 6.71034C4.2377 6.59977 4.14755 6.51108 4.03697 6.51108C3.95024 6.51108 3.87314 6.56628 3.8452 6.64838L2.94661 9.2889C2.88824 9.46042 3.01576 9.63851 3.19694 9.63851H3.24786ZM12.4689 9.63851C12.8489 9.63851 13.1722 9.36484 13.2299 8.98922C13.3008 8.52828 13.3631 8.15487 13.4802 7.96449C13.5773 7.80678 13.8064 7.6732 13.8559 7.49476C13.8888 7.37611 13.9235 7.28915 13.9552 7.21327C13.9784 7.15757 13.9378 7.09747 13.8775 7.09747C13.7775 7.09747 13.6855 7.14667 13.6083 7.21016C13.5544 7.25451 13.4272 7.19883 13.4392 7.13005M16.1626 7.74902C16.1626 7.74902 16.4443 7.61871 16.8512 7.61871C17.0704 7.61871 17.2582 7.65129 17.2582 7.84675C17.2582 7.95413 17.1662 8.00964 17.0588 8.00964H16.9451C16.413 8.00964 15.8183 8.23768 15.8183 8.98696C15.8183 9.57336 16.1939 9.70367 16.413 9.70367C16.6942 9.70367 16.8723 9.58293 16.9721 9.49642C17.0249 9.45069 17.063 9.47147 17.0547 9.54078C17.0464 9.61009 17.1005 9.67109 17.1703 9.67109H17.3571C17.4978 9.67109 17.617 9.56739 17.6365 9.42803L17.8529 7.87933C17.8529 7.13005 17.2269 7.09747 16.9765 7.09747M17.0569 8.4756C17.2698 8.50938 17.382 8.66425 17.2339 8.82093C17.0909 8.9723 16.8928 9.11727 16.6947 9.11727C16.5069 9.11727 16.4443 8.95439 16.4443 8.85665C16.4443 8.69973 16.5315 8.48234 16.9577 8.46663C16.9908 8.46541 17.0241 8.47041 17.0569 8.4756ZM17.7277 9.63851C18.1078 9.63851 18.431 9.36484 18.4888 8.98922C18.5597 8.52828 18.622 8.15487 18.7391 7.96449C18.8361 7.80678 19.0652 7.6732 19.1147 7.49476C19.1476 7.37611 19.1824 7.28915 19.214 7.21327C19.2373 7.15757 19.1967 7.09747 19.1363 7.09747C19.0364 7.09747 18.9443 7.14667 18.8671 7.21016C18.8132 7.25451 18.6861 7.19883 18.6981 7.13005" fill="#DCE5E5"/>
</svg>
