<svg width="24" height="24" viewBox="0 0 24 24" fill="none" xmlns="http://www.w3.org/2000/svg">
<mask id="mask0_65_155" style="mask-type:alpha" maskUnits="userSpaceOnUse" x="0" y="0" width="24" height="24">
<rect width="24" height="24" fill="#D9D9D9"/>
</mask>
<g mask="url(#mask0_65_155)">
<path d="M2.88236 18.2579C2.63235 18.2579 2.4228 18.1733 2.25368 18.0041C2.08456 17.8349 2 17.6253 2 17.3752C2 17.1251 2.08456 16.9155 2.25368 16.7466C2.4228 16.5777 2.63235 16.4932 2.88236 16.4932H21.1176C21.3676 16.4932 21.5772 16.5778 21.7463 16.747C21.9154 16.9162 22 17.1259 22 17.376C22 17.6261 21.9154 17.8356 21.7463 18.0045C21.5772 18.1734 21.3676 18.2579 21.1176 18.2579H2.88236ZM2.88236 12.5113C2.63235 12.5113 2.4228 12.4267 2.25368 12.2575C2.08456 12.0883 2 11.8787 2 11.6286C2 11.3785 2.08456 11.1689 2.25368 11C2.4228 10.8311 2.63235 10.7466 2.88236 10.7466H21.1176C21.3676 10.7466 21.5772 10.8312 21.7463 11.0004C21.9154 11.1696 22 11.3792 22 11.6293C22 11.8795 21.9154 12.089 21.7463 12.2579C21.5772 12.4268 21.3676 12.5113 21.1176 12.5113H2.88236ZM2.88236 6.76468C2.63235 6.76468 2.4228 6.68008 2.25368 6.51089C2.08456 6.34171 2 6.13206 2 5.88194C2 5.63184 2.08456 5.42233 2.25368 5.25341C2.4228 5.08447 2.63235 5 2.88236 5H21.1176C21.3676 5 21.5772 5.0846 21.7463 5.25379C21.9154 5.42299 22 5.63264 22 5.88274C22 6.13286 21.9154 6.34238 21.7463 6.5113C21.5772 6.68022 21.3676 6.76468 21.1176 6.76468H2.88236Z" fill="white"/>
</g>
</svg>
