<svg width="24" height="24" viewBox="0 0 24 24" fill="none" xmlns="http://www.w3.org/2000/svg">
<mask id="mask0_19_325" style="mask-type:alpha" maskUnits="userSpaceOnUse" x="0" y="0" width="24" height="24">
<rect width="24" height="24" fill="#D9D9D9"/>
</mask>
<g mask="url(#mask0_19_325)">
<path d="M3.7741 18.9568V7.88775L2.07408 4.18189C1.98129 3.978 1.97567 3.76778 2.05722 3.55124C2.13878 3.3347 2.2815 3.18002 2.48538 3.08722C2.68927 2.99443 2.89949 2.98599 3.11603 3.06191C3.33255 3.13784 3.48722 3.27776 3.58003 3.48165L5.57533 7.83291H18.4247L20.42 3.48165C20.5128 3.27776 20.6674 3.13504 20.884 3.05349C21.1005 2.97192 21.3107 2.98364 21.5146 3.08864C21.7185 3.1805 21.8612 3.3347 21.9428 3.55124C22.0243 3.76778 22.0187 3.978 21.9259 4.18189L20.2259 7.88775V18.9568C20.2259 19.5021 20.0318 19.9688 19.6435 20.3571C19.2552 20.7454 18.7885 20.9395 18.2432 20.9395H5.75677C5.21154 20.9395 4.74479 20.7454 4.35653 20.3571C3.96824 19.9688 3.7741 19.5021 3.7741 18.9568ZM9.80642 13.5362H14.1936C14.4266 13.5362 14.622 13.4573 14.7797 13.2996C14.9373 13.1419 15.0161 12.9464 15.0161 12.7132C15.0161 12.4801 14.9373 12.2847 14.7797 12.1273C14.622 11.9698 14.4266 11.891 14.1936 11.891H9.80642C9.57335 11.891 9.378 11.9699 9.22035 12.1276C9.06269 12.2854 8.98386 12.4808 8.98386 12.714C8.98386 12.9471 9.06269 13.1425 9.22035 13.2999C9.378 13.4574 9.57335 13.5362 9.80642 13.5362Z" fill="#333333"/>
</g>
</svg>
