<svg width="24" height="24" viewBox="0 0 24 24" fill="none" xmlns="http://www.w3.org/2000/svg">
<mask id="mask0_22_361" style="mask-type:alpha" maskUnits="userSpaceOnUse" x="0" y="0" width="24" height="24">
<rect width="24" height="24" fill="#D9D9D9"/>
</mask>
<g mask="url(#mask0_22_361)">
<path d="M5.70851 17.5709C6.60325 16.9069 7.57794 16.3826 8.6326 15.998C9.68725 15.6134 10.8097 15.4211 12 15.4211C13.1903 15.4211 14.3128 15.6134 15.3674 15.998C16.4221 16.3826 17.3968 16.9069 18.2915 17.5709C18.946 16.8516 19.4646 16.0189 19.8472 15.0729C20.2298 14.1269 20.4211 13.1026 20.4211 12C20.4211 9.66666 19.6009 7.67981 17.9605 6.03946C16.3202 4.3991 14.3333 3.57893 12 3.57893C9.66666 3.57893 7.67981 4.3991 6.03946 6.03946C4.3991 7.67981 3.57893 9.66666 3.57893 12C3.57893 13.1026 3.77022 14.1269 4.15282 15.0729C4.53542 16.0189 5.05398 16.8516 5.70851 17.5709ZM12 12.7894C11.0391 12.7894 10.2287 12.4595 9.56883 11.7996C8.90892 11.1397 8.57896 10.3293 8.57896 9.36841C8.57896 8.40755 8.90892 7.59716 9.56883 6.93725C10.2287 6.27734 11.0391 5.94738 12 5.94738C12.9609 5.94738 13.7712 6.27734 14.4312 6.93725C15.0911 7.59716 15.421 8.40755 15.421 9.36841C15.421 10.3293 15.0911 11.1397 14.4312 11.7996C13.7712 12.4595 12.9609 12.7894 12 12.7894ZM12 22C10.6113 22 9.3087 21.7389 8.09212 21.2166C6.87552 20.6943 5.81715 19.9831 4.91701 19.083C4.01688 18.1828 3.30569 17.1245 2.78342 15.9079C2.26114 14.6913 2 13.3887 2 12C2 10.6113 2.26114 9.3087 2.78342 8.09212C3.30569 6.87552 4.01688 5.81715 4.91701 4.91701C5.81715 4.01688 6.87552 3.30569 8.09212 2.78342C9.3087 2.26114 10.6113 2 12 2C13.3887 2 14.6913 2.26114 15.9079 2.78342C17.1245 3.30569 18.1828 4.01688 19.083 4.91701C19.9831 5.81715 20.6943 6.87552 21.2166 8.09212C21.7389 9.3087 22 10.6113 22 12C22 13.3887 21.7389 14.6913 21.2166 15.9079C20.6943 17.1245 19.9831 18.1828 19.083 19.083C18.1828 19.9831 17.1245 20.6943 15.9079 21.2166C14.6913 21.7389 13.3887 22 12 22Z" fill="#333333"/>
</g>
</svg>
