<svg width="15" height="13" viewBox="0 0 15 13" fill="none" xmlns="http://www.w3.org/2000/svg">
<path d="M9.65718 2.28258C9.3403 2.28258 9.07086 2.17159 8.84887 1.9496C8.62688 1.72761 8.51589 1.45817 8.51589 1.14129C8.51589 0.8244 8.62688 0.554959 8.84887 0.332969C9.07086 0.11099 9.3403 0 9.65718 0C9.97407 0 10.2435 0.11099 10.4655 0.332969C10.6875 0.554959 10.7985 0.8244 10.7985 1.14129C10.7985 1.45817 10.6875 1.72761 10.4655 1.9496C10.2435 2.17159 9.97407 2.28258 9.65718 2.28258ZM6.52924 5.54346L7.66176 6.73119C7.7688 6.83821 7.85011 6.96154 7.90571 7.10117C7.96131 7.2408 7.98911 7.38712 7.98911 7.54013V10.4724C7.98911 10.611 7.94222 10.7272 7.84843 10.8209C7.75464 10.9147 7.63842 10.9615 7.49978 10.9615C7.36113 10.9615 7.24498 10.9147 7.15134 10.8209C7.0577 10.7272 7.01088 10.611 7.01088 10.4724V7.71947L4.83611 5.94982C4.70484 5.84029 4.61412 5.72363 4.56396 5.59986C4.51379 5.47609 4.4887 5.32852 4.4887 5.15715C4.4887 4.98577 4.5165 4.84051 4.57211 4.72136C4.62771 4.60221 4.71571 4.48243 4.83611 4.36203L6.69984 2.49832C6.82023 2.37792 6.95191 2.28992 7.09489 2.23431C7.23787 2.17871 7.39464 2.15091 7.56521 2.15091C7.73578 2.15091 7.89255 2.17871 8.03553 2.23431C8.1785 2.28992 8.31019 2.37792 8.43058 2.49832L9.66972 3.73746C9.90635 3.97408 10.1764 4.17642 10.4799 4.34447C10.7834 4.51254 11.1154 4.63127 11.4758 4.70067C11.6187 4.7291 11.7364 4.7918 11.8288 4.88879C11.9212 4.98578 11.9674 5.10472 11.9674 5.2456C11.9674 5.38648 11.9168 5.50207 11.8156 5.59238C11.7145 5.68267 11.5945 5.71904 11.4557 5.70149C10.9398 5.6254 10.4716 5.4774 10.051 5.2575C9.63044 5.0376 9.25252 4.76 8.91724 4.42472L8.2826 3.79011L6.52924 5.54346ZM3.06019 6.76005C3.92725 6.76005 4.65404 7.05332 5.24058 7.63985C5.82711 8.22639 6.12038 8.95318 6.12038 9.82024C6.12038 10.6873 5.82711 11.4141 5.24058 12.0006C4.65404 12.5872 3.92725 12.8804 3.06019 12.8804C2.19313 12.8804 1.46634 12.5872 0.879802 12.0006C0.293267 11.4141 0 10.6873 0 9.82024C0 8.95318 0.293262 8.22639 0.879785 7.63985C1.46633 7.05332 2.19313 6.76005 3.06019 6.76005ZM3.06019 12.1029C3.68812 12.1029 4.22554 11.8794 4.67245 11.4325C5.11935 10.9856 5.34281 10.4482 5.34281 9.82024C5.34281 9.19231 5.11935 8.65489 4.67245 8.20798C4.22554 7.76108 3.68812 7.53762 3.06019 7.53762C2.43226 7.53762 1.89484 7.76108 1.44793 8.20798C1.00103 8.65489 0.777573 9.19231 0.777573 9.82024C0.777573 10.4482 1.00103 10.9856 1.44793 11.4325C1.89484 11.8794 2.43226 12.1029 3.06019 12.1029ZM11.9398 6.76005C12.8069 6.76005 13.5336 7.05332 14.1202 7.63985C14.7067 8.22639 15 8.95318 15 9.82024C15 10.6873 14.7067 11.4141 14.1202 12.0006C13.5336 12.5872 12.8069 12.8804 11.9398 12.8804C11.0727 12.8804 10.3459 12.5872 9.75941 12.0006C9.17287 11.4141 8.87961 10.6873 8.87961 9.82024C8.87961 8.95318 9.17287 8.22639 9.75941 7.63985C10.3459 7.05332 11.0727 6.76005 11.9398 6.76005ZM11.9398 12.1029C12.5677 12.1029 13.1051 11.8794 13.5521 11.4325C13.999 10.9856 14.2224 10.4482 14.2224 9.82024C14.2224 9.19231 13.999 8.65489 13.5521 8.20798C13.1051 7.76108 12.5677 7.53762 11.9398 7.53762C11.3119 7.53762 10.7744 7.76108 10.3275 8.20798C9.88063 8.65489 9.65718 9.19231 9.65718 9.82024C9.65718 10.4482 9.88063 10.9856 10.3275 11.4325C10.7744 11.8794 11.3119 12.1029 11.9398 12.1029Z" fill="#969696"/>
</svg>
