<svg width="24" height="17" viewBox="0 0 24 17" fill="none" xmlns="http://www.w3.org/2000/svg">
<rect x="0.25" y="0.25" width="23.5" height="16.3" rx="1.75" stroke="#C9C9C9" stroke-width="0.5"/>
<path d="M17.8036 6.4421C17.89 6.37011 17.9333 6.33412 17.9765 6.29812C18.5775 5.76719 19.347 5.82568 19.8615 6.4556C19.9134 6.51859 19.9393 6.52309 19.9912 6.4691C20.0258 6.42861 20.0647 6.39711 20.0993 6.35661C20.5014 5.94716 21.0331 5.82568 21.5303 6.05515C22.0535 6.29812 22.3345 6.72557 22.3388 7.324C22.3475 8.61534 22.3431 9.90218 22.3431 11.1935C22.3431 11.6525 22.0708 11.9404 21.6341 11.9404C21.4612 11.9404 21.2882 11.9269 21.1153 11.9449C20.938 11.9629 20.8862 11.9044 20.8862 11.711C20.8948 10.4511 20.8905 9.19127 20.8905 7.93142C20.8905 7.87743 20.8905 7.82794 20.8905 7.77394C20.8862 7.48148 20.7737 7.35999 20.5057 7.34649C20.2636 7.333 20.095 7.48598 20.069 7.74245C20.0647 7.80094 20.069 7.86393 20.069 7.92242C20.069 9.01129 20.069 10.0957 20.069 11.1845C20.069 11.6615 19.8053 11.9404 19.347 11.9359C19.1136 11.9314 18.798 12.0439 18.6639 11.8864C18.5472 11.7515 18.625 11.432 18.625 11.1935C18.625 10.0777 18.625 8.9573 18.625 7.84143C18.625 7.44548 18.3786 7.24301 18.0587 7.37799C17.8598 7.46348 17.7949 7.62996 17.7949 7.84593C17.7993 8.88981 17.7949 9.92918 17.7949 10.9731C17.7949 11.054 17.7949 11.1395 17.7949 11.2205C17.782 11.657 17.5139 11.9314 17.0989 11.9359C16.9259 11.9404 16.753 11.9224 16.5801 11.9404C16.3942 11.9584 16.3379 11.9044 16.3423 11.6975C16.3509 9.92918 16.3466 8.1609 16.3466 6.38811C16.3466 6.31162 16.3509 6.23963 16.3466 6.16314C16.3379 6.06415 16.3769 6.03265 16.472 6.03265C16.8697 6.03715 17.2632 6.03715 17.6609 6.03265C17.7603 6.03265 17.8079 6.05965 17.7993 6.17214C17.7906 6.25313 17.7993 6.32512 17.8036 6.4421Z" fill="#02B9EF"/>
<path d="M8.63772 8.88084C8.63772 9.49726 8.63772 10.1092 8.63772 10.7256C8.63339 11.5265 8.23132 11.9405 7.46175 11.945C7.12453 11.945 6.78298 11.9495 6.44576 11.945C5.76266 11.936 5.26115 11.4635 5.22656 10.7526C5.20062 10.2442 5.1963 9.73124 5.22224 9.2228C5.25683 8.49389 5.79293 7.98095 6.50196 7.97195C6.68787 7.96745 6.8781 7.97195 7.064 7.97195C7.24558 7.96745 7.31476 7.85946 7.31044 7.67949C7.31044 7.49951 7.23261 7.41852 7.05968 7.42752C6.86513 7.43202 6.67057 7.43202 6.47602 7.42752C6.00045 7.41852 5.73672 7.14855 5.74105 6.66261C5.74105 6.46463 5.65458 6.19916 5.77996 6.08218C5.88804 5.98319 6.13447 6.04618 6.32038 6.04618C6.8046 6.04168 7.28449 6.04618 7.76871 6.04618C8.2832 6.04618 8.63339 6.41064 8.63772 6.95057C8.64204 7.5895 8.63772 8.23742 8.63772 8.88084ZM7.31476 9.90222C7.31476 9.82572 7.31476 9.75373 7.31476 9.67724C7.31476 9.2183 7.31476 9.2183 6.87377 9.2363C6.65328 9.24529 6.53223 9.36228 6.5279 9.60075C6.52358 9.78973 6.52358 9.97421 6.5279 10.1632C6.53223 10.4871 6.67057 10.5726 7.12021 10.5861C7.45311 10.5951 7.28449 10.3522 7.31476 10.2172C7.33205 10.1182 7.31044 10.0057 7.31476 9.90222ZM12.4855 8.3904C12.4855 9.07881 12.4942 9.77173 12.4812 10.4601C12.4726 10.9911 12.3515 11.4725 11.8586 11.756C11.6598 11.8685 11.4436 11.9315 11.2188 11.936C10.7216 11.945 10.2244 11.936 9.72721 11.945C9.60615 11.945 9.58021 11.9 9.58454 11.7875C9.59318 11.5985 9.58021 11.414 9.58886 11.2251C9.59751 10.8651 9.86123 10.5906 10.2071 10.5771C10.4319 10.5681 10.6524 10.5726 10.8772 10.5771C11.0588 10.5771 11.1583 10.5006 11.1583 10.2982C11.1583 10.0912 11.0631 10.0192 10.8816 10.0147C10.5789 10.0057 10.2763 10.0507 9.97797 9.96071C9.46348 9.80323 9.08735 9.35778 9.07438 8.80435C9.04844 7.92696 9.06573 7.04956 9.06141 6.17217C9.06141 6.07318 9.09167 6.04168 9.18679 6.04618C9.5413 6.05068 9.8915 6.05518 10.246 6.04618C10.4017 6.04168 10.38 6.13167 10.38 6.23066C10.38 6.89208 10.38 7.549 10.38 8.21042C10.38 8.49839 10.5097 8.65137 10.7519 8.66037C11.0372 8.66936 11.1626 8.54788 11.1626 8.24642C11.1626 7.5805 11.1669 6.91008 11.1583 6.24416C11.1583 6.08668 11.1972 6.04168 11.3485 6.04618C11.6641 6.05968 11.984 6.06418 12.2996 6.04618C12.4726 6.03718 12.4985 6.10468 12.4942 6.26216C12.4812 6.96857 12.4855 7.67948 12.4855 8.3904ZM1.46954 9.41178C1.46954 8.67836 1.46954 7.94045 1.46954 7.20704C1.46954 6.48713 1.89323 6.03718 2.5893 6.04618C3.04325 6.05068 3.49721 5.99219 3.94684 6.08218C4.52185 6.19916 4.88501 6.66261 4.88934 7.27903C4.89366 7.93145 4.88934 8.58387 4.88934 9.2363C4.88934 10.0552 4.42674 10.5546 3.63988 10.5771C3.40209 10.5861 3.16431 10.5816 2.92652 10.5771C2.81843 10.5726 2.77088 10.6086 2.7752 10.7301C2.78385 10.9101 2.77952 11.0901 2.7752 11.27C2.76655 11.657 2.50283 11.936 2.13534 11.9405C1.91917 11.945 1.6468 12.035 1.50845 11.9045C1.37875 11.783 1.47386 11.495 1.46954 11.279C1.46521 10.6581 1.46954 10.0327 1.46954 9.41178ZM2.7752 8.30941C2.7752 8.45339 2.7752 8.59287 2.7752 8.73686C2.7752 9.2453 2.7752 9.2453 3.26374 9.2003C3.47559 9.1823 3.57503 9.07432 3.57935 8.85384C3.58367 8.60187 3.5707 8.3454 3.58367 8.09343C3.60961 7.36452 3.47991 7.43651 2.90923 7.43202C2.80546 7.43202 2.77088 7.46351 2.77088 7.5715C2.77952 7.81447 2.7752 8.06194 2.7752 8.30941Z" fill="#06306F"/>
<path d="M13.7092 9.42078C13.7092 8.82235 13.7049 8.21942 13.7135 7.621C13.7135 7.48151 13.6833 7.42302 13.5363 7.42752C13.3417 7.43652 13.0823 7.49501 12.9742 7.39602C12.8402 7.26554 12.944 6.98657 12.9267 6.7706C12.9267 6.7571 12.9267 6.7391 12.9267 6.72561C12.9267 6.51413 12.8618 6.26666 12.9483 6.10918C13.0348 5.9517 13.2985 6.05069 13.4844 6.00119C13.8519 5.9022 14.1286 5.68173 14.3534 5.37577C14.509 5.16879 14.7036 5.02031 14.9543 4.97082C15.0884 4.94382 15.1705 4.96182 15.1619 5.1418C15.1489 5.39377 15.1619 5.65024 15.1575 5.9067C15.1532 6.01469 15.1921 6.05069 15.2959 6.04619C15.4688 6.04169 15.6418 6.05069 15.8147 6.04169C15.9185 6.03719 15.953 6.07768 15.9487 6.18567C15.9444 6.55463 15.9444 6.91908 15.9487 7.28804C15.9487 7.39152 15.9228 7.44552 15.8147 7.43202C15.7931 7.42752 15.7715 7.43202 15.7498 7.43202C15.5596 7.45002 15.2959 7.34203 15.1964 7.47701C15.1013 7.603 15.1619 7.86397 15.1619 8.06644C15.1619 9.29029 15.1575 10.5096 15.1662 11.7335C15.1662 11.9045 15.1229 11.9585 14.9587 11.945C14.803 11.9315 14.6431 11.945 14.4831 11.9405C14.0162 11.9225 13.7092 11.594 13.7092 11.1081C13.7092 10.5456 13.7092 9.98321 13.7092 9.42078Z" fill="#02B9EF"/>
</svg>
