<svg width="15" height="15" viewBox="0 0 15 15" fill="none" xmlns="http://www.w3.org/2000/svg">
<path d="M1.59503 15C1.14933 15 0.772061 14.8456 0.463237 14.5368C0.154412 14.2279 0 13.8507 0 13.405V1.59503C0 1.14933 0.154412 0.772061 0.463237 0.463237C0.772061 0.154412 1.14933 0 1.59503 0H13.405C13.8507 0 14.2279 0.154412 14.5368 0.463237C14.8456 0.772061 15 1.14933 15 1.59503V13.405C15 13.8507 14.8456 14.2279 14.5368 14.5368C14.2279 14.8456 13.8507 15 13.405 15H1.59503ZM5.38574 7.4372L7.5 6.38007L9.61426 7.4372C9.84049 7.55032 10.0594 7.54211 10.2709 7.41258C10.4824 7.28307 10.5882 7.09162 10.5882 6.83823V1.32351H4.41178V6.83823C4.41178 7.09162 4.51755 7.28307 4.72909 7.41258C4.94062 7.54211 5.15951 7.55032 5.38574 7.4372ZM3.74997 11.6912H6.83825C7.02603 11.6912 7.18327 11.6278 7.30996 11.5011C7.43665 11.3744 7.5 11.2172 7.5 11.0294C7.5 10.8416 7.43665 10.6844 7.30996 10.5577C7.18327 10.431 7.02603 10.3677 6.83825 10.3677H3.74997C3.56219 10.3677 3.40495 10.431 3.27826 10.5577C3.15157 10.6844 3.08822 10.8416 3.08822 11.0294C3.08822 11.2172 3.15157 11.3744 3.27826 11.5011C3.40495 11.6278 3.56219 11.6912 3.74997 11.6912Z" fill="#969696"/>
</svg>
