<svg width="26" height="18" viewBox="0 0 26 18" fill="none" xmlns="http://www.w3.org/2000/svg">
<path d="M23.6336 1H2.36641C1.61176 1 1 1.63667 1 2.42205V15.665C1 16.4504 1.61176 17.0871 2.36641 17.0871H23.6336C24.3882 17.0871 25 16.4504 25 15.665V2.42205C25 1.63667 24.3882 1 23.6336 1Z" fill="white" stroke="#C9C9C9" stroke-width="0.5" stroke-linecap="round" stroke-linejoin="round"/>
<path d="M5.71894 11.1261L5.50444 10.0305C5.49147 9.95997 5.47551 9.89008 5.4566 9.82105C5.44318 9.76992 5.42353 9.72079 5.39813 9.67486C5.37875 9.63958 5.35088 9.61016 5.31726 9.58951C5.28048 9.56974 5.23941 9.56022 5.19805 9.56186H5.04618L4.53516 11.1265H3.24658L4.69993 6.67468H6.41221C7.01056 6.67468 7.41945 6.77662 7.63852 6.9805C7.85721 7.18439 7.89973 7.49022 7.76685 7.89759C7.71546 8.05861 7.64165 8.21089 7.54778 8.34961C7.36901 8.61254 7.12904 8.82396 6.85034 8.96403C6.71062 9.03516 6.56521 9.09285 6.41373 9.13631L6.40462 9.16396C6.50956 9.21627 6.60016 9.29521 6.6681 9.39352C6.70265 9.44371 6.7334 9.50179 6.76074 9.56778C6.7877 9.63416 6.81237 9.7116 6.83515 9.8009L7.17191 11.1261H5.71894ZM6.3359 8.08724C6.38449 7.93828 6.37918 7.82014 6.32033 7.73321C6.2611 7.64629 6.13809 7.60283 5.9513 7.60283H5.68554L5.35295 8.62106H5.58568C5.68516 8.62106 5.77627 8.60525 5.85942 8.57285C5.94295 8.54085 6.01584 8.49936 6.07887 8.44879C6.14227 8.39821 6.1958 8.34131 6.23908 8.27809C6.28274 8.21487 6.31502 8.15165 6.3359 8.08724ZM9.34624 11.1261L9.50646 10.6358H9.49469C9.43926 10.6895 9.37434 10.7496 9.3003 10.816C9.22193 10.8851 9.13782 10.9468 9.04897 11.0005C8.95081 11.0597 8.84698 11.108 8.73916 11.1447C8.62602 11.1842 8.50187 11.204 8.36633 11.204C8.17954 11.204 8.03223 11.1704 7.92365 11.1028C7.81914 11.0401 7.73907 10.9413 7.69737 10.8235C7.65447 10.7049 7.64156 10.5635 7.65826 10.3999C7.67894 10.2179 7.71892 10.0389 7.77748 9.8661L8.40392 7.94738H9.67465L9.08048 9.76652C9.02771 9.92813 9.01859 10.0467 9.05238 10.1221C9.08655 10.1972 9.15717 10.2351 9.26462 10.2351C9.38801 10.2351 9.49469 10.1929 9.58505 10.1079C9.67503 10.0234 9.74565 9.90324 9.79652 9.74795L10.3842 7.94738H11.655L10.617 11.1261H9.34624ZM15.818 8.14297C15.7441 8.36915 15.6333 8.58035 15.4903 8.76726C15.344 8.95916 15.1688 9.12526 14.9717 9.25918C14.7705 9.39669 14.5457 9.50377 14.297 9.58043C14.0372 9.65853 13.7679 9.69711 13.4975 9.695H13.1038L12.6368 11.1261H11.3478L12.8016 6.67468H14.5556C14.8358 6.67468 15.0757 6.70036 15.2743 6.75212C15.4732 6.80388 15.6274 6.88844 15.7375 7.00501C15.8476 7.12236 15.9102 7.27369 15.9262 7.46019C15.9417 7.6463 15.9057 7.87389 15.818 8.14297ZM14.4398 8.18958C14.474 8.08408 14.4869 7.99597 14.4778 7.92564C14.4721 7.8622 14.446 7.80262 14.4037 7.75654C14.3588 7.7117 14.3033 7.68006 14.2428 7.66486C14.1702 7.64555 14.0955 7.63626 14.0207 7.63721H13.7758L13.417 8.73565H13.7063C13.8099 8.73565 13.9011 8.72261 13.9804 8.69574C14.1292 8.64753 14.2565 8.54567 14.3396 8.40849C14.3806 8.34132 14.414 8.26821 14.4398 8.18958ZM16.9349 11.1261L17.0929 10.6421H17.0811C16.9281 10.8179 16.7584 10.9555 16.572 11.055C16.3847 11.1546 16.1771 11.2056 15.9668 11.204C15.8119 11.204 15.6847 11.1787 15.586 11.1277C15.4937 11.0833 15.417 11.0101 15.3666 10.9183C15.3175 10.8224 15.2935 10.7148 15.2971 10.6062C15.2978 10.4876 15.321 10.3596 15.3654 10.2229C15.4034 10.1071 15.4562 9.99096 15.5237 9.87519C15.5967 9.75301 15.6882 9.64398 15.7948 9.55237C15.9219 9.44427 16.064 9.35687 16.2162 9.29316C16.3848 9.21967 16.5883 9.16753 16.8267 9.13631L17.618 9.03357C17.635 8.98721 17.6387 8.93668 17.6286 8.88816C17.618 8.84469 17.5948 8.80566 17.5621 8.77635C17.5234 8.7426 17.4778 8.7183 17.4289 8.70523C17.3668 8.6876 17.3026 8.67908 17.2383 8.67993C17.1369 8.67993 17.0333 8.68902 16.927 8.70641C16.8207 8.72419 16.7166 8.74711 16.6149 8.77635C16.5155 8.80444 16.4173 8.837 16.3206 8.87395C16.2261 8.9103 16.1384 8.94705 16.0564 8.98458L16.3374 8.1244C16.4216 8.09121 16.5196 8.05919 16.6323 8.02798C16.7451 7.99716 16.862 7.9703 16.9839 7.94738C17.1058 7.92446 17.2269 7.90588 17.3469 7.89166C17.4571 7.8778 17.568 7.87054 17.6791 7.86993C17.9574 7.86993 18.1806 7.90154 18.3492 7.96476C18.5174 8.02758 18.6389 8.12163 18.7133 8.24688C18.7877 8.37214 18.8192 8.5286 18.8078 8.71589C18.7964 8.90318 18.7497 9.12208 18.6677 9.37219L18.0952 11.1265L16.9349 11.1261ZM16.9604 9.73254C16.8579 9.74914 16.7687 9.78272 16.6935 9.8333C16.6419 9.86782 16.599 9.91472 16.5684 9.97006C16.5378 10.0254 16.5204 10.0876 16.5177 10.1514C16.5173 10.1869 16.5241 10.2186 16.5386 10.2478C16.553 10.2766 16.5765 10.2999 16.6096 10.3177C16.6513 10.3371 16.6968 10.346 16.7425 10.3438C16.8062 10.3438 16.8696 10.3312 16.933 10.3051C16.9961 10.2794 17.0553 10.2419 17.1115 10.1933C17.2311 10.086 17.3208 9.94719 17.3712 9.79142L17.4103 9.67051L16.9604 9.73254ZM20.7741 11.2162C20.653 11.3984 20.5235 11.5738 20.3846 11.7425C20.2492 11.9079 20.0976 12.0582 19.9324 12.191C19.7691 12.3214 19.5922 12.4253 19.4009 12.5032C19.1996 12.5826 18.9858 12.622 18.7706 12.6193C18.6587 12.6178 18.547 12.609 18.4361 12.5929C18.3707 12.5834 18.3059 12.5705 18.2417 12.5541C18.1798 12.5387 18.1193 12.518 18.0606 12.4921L18.386 11.4956C18.4125 11.5224 18.4432 11.5445 18.4768 11.5608C18.5136 11.5794 18.5523 11.5964 18.5933 11.6106C18.6713 11.6383 18.7531 11.6529 18.8355 11.654C18.9441 11.6553 19.0516 11.6309 19.1499 11.5829C19.2499 11.5317 19.3364 11.4559 19.402 11.362L19.5816 11.1139L19.339 7.94738H20.7437L20.6131 9.48085C20.6093 9.52827 20.6055 9.57964 20.6006 9.63298C20.5915 9.73525 20.5796 9.83723 20.5649 9.9388C20.5577 9.98542 20.5497 10.0253 20.541 10.0585H20.5527C20.5865 9.98582 20.6302 9.90048 20.6841 9.80209C20.738 9.7041 20.7973 9.599 20.8614 9.48718L21.7312 7.94738H22.9663L20.7741 11.2162Z" fill="#004A8C"/>
</svg>
