<svg width="24" height="24" viewBox="0 0 24 24" fill="none" xmlns="http://www.w3.org/2000/svg">
<mask id="mask0_1_18" style="mask-type:alpha" maskUnits="userSpaceOnUse" x="0" y="0" width="24" height="24">
<rect width="24" height="24" fill="#D9D9D9"/>
</mask>
<g mask="url(#mask0_1_18)">
<path d="M9.24656 16.4931C7.22299 16.4931 5.50935 15.7913 4.10562 14.3875C2.70187 12.9838 2 11.2701 2 9.24656C2 7.22299 2.70187 5.50934 4.10562 4.10559C5.50935 2.70186 7.22299 2 9.24656 2C11.2701 2 12.9838 2.70186 14.3875 4.10559C15.7913 5.50934 16.4932 7.22299 16.4932 9.24656C16.4932 10.0928 16.3511 10.901 16.067 11.6712C15.7829 12.4414 15.4039 13.1114 14.9299 13.6811L21.7481 20.4993C21.9122 20.6634 21.9961 20.8696 21.9999 21.118C22.0037 21.3664 21.9198 21.5764 21.7481 21.7481C21.5764 21.9197 21.3683 22.0056 21.1237 22.0056C20.8791 22.0056 20.671 21.9197 20.4993 21.7481L13.6811 14.9299C13.0886 15.4191 12.4073 15.8019 11.637 16.0784C10.8668 16.3549 10.07 16.4931 9.24656 16.4931ZM9.24656 14.7157C10.7734 14.7157 12.0666 14.1859 13.1262 13.1262C14.1859 12.0666 14.7157 10.7734 14.7157 9.24656C14.7157 7.71976 14.1859 6.42653 13.1262 5.36688C12.0666 4.30724 10.7734 3.77741 9.24656 3.77741C7.71976 3.77741 6.42653 4.30724 5.36688 5.36688C4.30725 6.42653 3.77744 7.71976 3.77744 9.24656C3.77744 10.7734 4.30725 12.0666 5.36688 13.1262C6.42653 14.1859 7.71976 14.7157 9.24656 14.7157Z" fill="#6C6C6C"/>
</g>
</svg>
