<svg width="24" height="24" viewBox="0 0 24 24" fill="none" xmlns="http://www.w3.org/2000/svg">
<mask id="mask0_17_86" style="mask-type:alpha" maskUnits="userSpaceOnUse" x="0" y="0" width="24" height="24">
<rect width="24" height="24" fill="#D9D9D9"/>
</mask>
<g mask="url(#mask0_17_86)">
<path d="M17.7511 21.5C16.9875 21.5 16.3381 21.2326 15.8029 20.6979C15.2676 20.1632 15 19.5139 15 18.75C15 18.6251 15.0099 18.4959 15.0298 18.3621C15.0497 18.2284 15.0795 18.1051 15.1192 17.9923L7.72305 13.6615C7.45895 13.9243 7.15831 14.1298 6.82113 14.2779C6.48394 14.4259 6.12689 14.5 5.74997 14.5C4.98609 14.5 4.33679 14.2327 3.80207 13.6982C3.26736 13.1637 3 12.5147 3 11.7511C3 10.9875 3.26736 10.3381 3.80207 9.80288C4.33679 9.26763 4.98609 9 5.74997 9C6.12689 9 6.48394 9.07403 6.82113 9.2221C7.15831 9.37018 7.45895 9.57563 7.72305 9.83845L15.1192 5.50768C15.0795 5.39486 15.0497 5.27157 15.0298 5.13783C15.0099 5.00409 15 4.87481 15 4.74998C15 3.98609 15.2673 3.33679 15.8018 2.80208C16.3363 2.26736 16.9853 2 17.7489 2C18.5124 2 19.1618 2.26725 19.6971 2.80175C20.2323 3.33625 20.5 3.98528 20.5 4.74885C20.5 5.51242 20.2326 6.16183 19.6979 6.69707C19.1632 7.23233 18.5139 7.49995 17.75 7.49995C17.3731 7.49995 17.016 7.42592 16.6788 7.27785C16.3416 7.12977 16.041 6.92432 15.7769 6.6615L8.38073 10.9923C8.42048 11.1051 8.45028 11.2282 8.47015 11.3615C8.49002 11.4947 8.49995 11.6236 8.49995 11.748C8.49995 11.8724 8.49002 12.0019 8.47015 12.1365C8.45028 12.2711 8.42048 12.3949 8.38073 12.5077L15.7769 16.8385C16.041 16.5756 16.3416 16.3702 16.6788 16.2221C17.016 16.074 17.3731 16 17.75 16C18.5139 16 19.1632 16.2673 19.6979 16.8018C20.2326 17.3363 20.5 17.9853 20.5 18.7489C20.5 19.5124 20.2327 20.1618 19.6982 20.6971C19.1637 21.2323 18.5147 21.5 17.7511 21.5Z" fill="white"/>
</g>
</svg>
