<svg width="20" height="20" viewBox="0 0 20 20" fill="none" xmlns="http://www.w3.org/2000/svg">
<path d="M5.8566 20C5.35329 20 4.92534 19.8237 4.57275 19.4711C4.22016 19.1186 4.04387 18.6906 4.04387 18.1873C4.04387 17.684 4.22016 17.256 4.57275 16.9034C4.92534 16.5508 5.35329 16.3745 5.8566 16.3745C6.35992 16.3745 6.78788 16.5508 7.14047 16.9034C7.49306 17.256 7.66935 17.684 7.66935 18.1873C7.66935 18.6906 7.49306 19.1186 7.14047 19.4711C6.78788 19.8237 6.35992 20 5.8566 20ZM15.8965 20C15.3931 20 14.9652 19.8237 14.6126 19.4711C14.26 19.1186 14.0837 18.6906 14.0837 18.1873C14.0837 17.684 14.26 17.256 14.6126 16.9034C14.9652 16.5508 15.3931 16.3745 15.8965 16.3745C16.3998 16.3745 16.8277 16.5508 17.1803 16.9034C17.5329 17.256 17.7092 17.684 17.7092 18.1873C17.7092 18.6906 17.5329 19.1186 17.1803 19.4711C16.8277 19.8237 16.3998 20 15.8965 20ZM3.93228 2.07172H18.3148C18.7384 2.07172 19.0588 2.252 19.2759 2.61254C19.493 2.97311 19.5033 3.34131 19.3068 3.71713L15.9881 9.72906C15.8181 10.0279 15.5933 10.2606 15.3138 10.4273C15.0342 10.5939 14.7278 10.6773 14.3945 10.6773H6.83668L5.63746 12.8685C5.58434 12.9482 5.58268 13.0345 5.63249 13.1275C5.6823 13.2205 5.757 13.267 5.8566 13.267H16.9323C17.1528 13.267 17.3374 13.3413 17.4861 13.4901C17.6348 13.6388 17.7092 13.8234 17.7092 14.0438C17.7092 14.2643 17.6348 14.4489 17.4861 14.5976C17.3374 14.7463 17.1528 14.8207 16.9323 14.8207H5.8566C5.16604 14.8207 4.64712 14.5229 4.29983 13.9273C3.95256 13.3317 3.94027 12.7371 4.26298 12.1434L5.7411 9.48604L1.97215 1.55374H0.776921C0.556455 1.55374 0.371865 1.47937 0.22315 1.33064C0.0743833 1.18191 0 0.997318 0 0.77687C0 0.556422 0.0743747 0.371832 0.223124 0.2231C0.371856 0.0743674 0.556447 0 0.776895 0H2.36054C2.53718 0 2.70185 0.0468131 2.85457 0.140438C3.00729 0.234062 3.1235 0.365866 3.20319 0.535851L3.93228 2.07172Z" fill="white"/>
</svg>
