<svg width="20" height="20" viewBox="0 0 20 20" fill="none" xmlns="http://www.w3.org/2000/svg">
<path d="M5.09709 6.21515L8.60337 0.468359C8.70606 0.299578 8.83176 0.179321 8.98048 0.107593C9.12922 0.0358637 9.28622 0 9.45148 0C9.61673 0 9.77372 0.0358637 9.92247 0.107593C10.0712 0.179321 10.1969 0.299578 10.2996 0.468359L13.8059 6.21515C13.9085 6.3804 13.9599 6.55393 13.9599 6.73573C13.9599 6.91751 13.9177 7.08364 13.8333 7.23412C13.7489 7.38461 13.6329 7.50487 13.4852 7.59488C13.3375 7.68489 13.1652 7.7299 12.9683 7.7299H5.93463C5.73693 7.7299 5.56393 7.68446 5.41564 7.59356C5.26736 7.50267 5.15203 7.38286 5.06966 7.23412C4.98526 7.0859 4.94306 6.92122 4.94306 6.74006C4.94306 6.5589 4.9944 6.38393 5.09709 6.21515ZM15.4877 19.7975C14.2343 19.7975 13.1681 19.3588 12.2891 18.4814C11.41 17.604 10.9705 16.5386 10.9705 15.2852C10.9705 14.0318 11.4092 12.9656 12.2866 12.0865C13.164 11.2075 14.2294 10.768 15.4828 10.768C16.7362 10.768 17.8024 11.2067 18.6815 12.084C19.5605 12.9614 20 14.0268 20 15.2802C20 16.5336 19.5613 17.5999 18.6839 18.4789C17.8065 19.3579 16.7411 19.7975 15.4877 19.7975ZM0 18.257V12.3056C0 12.0245 0.0950593 11.7894 0.285178 11.6002C0.475279 11.4111 0.710852 11.3165 0.991898 11.3165H6.94337C7.22442 11.3165 7.45952 11.4115 7.64869 11.6017C7.83786 11.7918 7.93244 12.0273 7.93244 12.3084V18.2599C7.93244 18.5409 7.83738 18.776 7.64727 18.9652C7.45716 19.1543 7.22159 19.2489 6.94055 19.2489H0.989073C0.708027 19.2489 0.47292 19.1539 0.283752 18.9638C0.0945839 18.7737 0 18.5381 0 18.257Z" fill="#333333"/>
</svg>
