<svg width="100" height="100" viewBox="0 0 100 100" fill="none" xmlns="http://www.w3.org/2000/svg">
<path d="M50.0088 100C43.0934 100 36.5932 98.6877 30.5082 96.0631C24.4232 93.4386 19.1301 89.8767 14.629 85.3776C10.1277 80.8784 6.56427 75.5876 3.93856 69.5053C1.31286 63.4231 0 56.9243 0 50.0088C0 43.0934 1.3125 36.5932 3.93751 30.5082C6.56252 24.4232 10.125 19.1301 14.625 14.629C19.125 10.1278 24.4167 6.56428 30.5001 3.93857C36.5833 1.31286 43.0833 0 50 0C54.3792 0 58.6235 0.558381 62.7328 1.67514C66.8422 2.7919 70.7727 4.40628 74.5244 6.51831C75.5365 7.08515 76.1978 7.90161 76.5082 8.96766C76.8186 10.0338 76.6364 11.0291 75.9616 11.9535C75.2869 12.8778 74.3945 13.4564 73.2845 13.6892C72.1746 13.9221 71.1035 13.755 70.0711 13.1882C66.9942 11.4676 63.7569 10.1552 60.3594 9.25095C56.9619 8.34673 53.5088 7.89463 50 7.89463C38.3333 7.89463 28.3991 11.9955 20.1973 20.1973C11.9955 28.3991 7.89463 38.3333 7.89463 50C7.89463 61.6667 11.9955 71.6009 20.1973 79.8027C28.3991 88.0045 38.3333 92.1054 50 92.1054C61.6667 92.1054 71.6009 88.0045 79.8027 79.8027C88.0045 71.6009 92.1054 61.6667 92.1054 50C92.1054 48.9814 92.0666 47.9946 91.9889 47.0396C91.9114 46.0847 91.7781 45.1045 91.5892 44.0991C91.4137 42.9783 91.606 41.9069 92.166 40.885C92.7261 39.8631 93.5693 39.2004 94.6955 38.8967C95.7554 38.5931 96.7392 38.7247 97.6467 39.2914C98.5542 39.8583 99.0957 40.6747 99.2712 41.7408C99.5141 43.0701 99.6963 44.4147 99.8178 45.7746C99.9392 47.1345 100 48.543 100 50C100 56.9167 98.6877 63.4167 96.0631 69.4999C93.4386 75.5833 89.8767 80.8749 85.3776 85.375C80.8784 89.875 75.5876 93.4375 69.5053 96.0625C63.4231 98.6875 56.9243 100 50.0088 100ZM42.5304 61.2957L91.6802 12.0648C92.409 11.3361 93.3115 10.9498 94.3877 10.9059C95.464 10.8621 96.414 11.252 97.2377 12.0758C97.9928 12.8309 98.3704 13.7517 98.3704 14.8381C98.3704 15.9244 97.9892 16.8488 97.2267 17.6112L45.8602 69.0586C44.9088 70.01 43.7989 70.4857 42.5304 70.4857C41.2618 70.4857 40.1518 70.01 39.2004 69.0586L24.757 54.6153C24.0283 53.8866 23.6555 52.9706 23.6386 51.8674C23.6218 50.7642 23.9946 49.8314 24.757 49.0689C25.5195 48.3064 26.4439 47.9251 27.5303 47.9251C28.6166 47.9251 29.541 48.3064 30.3035 49.0689L42.5304 61.2957Z" fill="#FF6D24"/>
</svg>
