<svg width="24" height="17" viewBox="0 0 24 17" fill="none" xmlns="http://www.w3.org/2000/svg">
<rect x="0.25" y="0.25" width="23.5" height="16.3" rx="1.75" stroke="#C9C9C9" stroke-width="0.5"/>
<path d="M1.60762 10.9477H1.76409L1.61756 11.581C1.5952 11.6741 1.60017 11.7464 1.62998 11.793C1.65978 11.8395 1.71442 11.8628 1.79638 11.8628C1.87586 11.8628 1.94292 11.8395 1.99508 11.793C2.04723 11.7464 2.08201 11.6741 2.10436 11.581L2.2509 10.9477H2.40985L2.26083 11.5965C2.22854 11.7361 2.17142 11.8421 2.08697 11.9119C2.00501 11.9817 1.89573 12.0179 1.76161 12.0179C1.62749 12.0179 1.5356 11.9842 1.48592 11.9145C1.43625 11.8447 1.42631 11.7387 1.4586 11.5991L1.60762 10.9477ZM2.3875 11.9894L2.63587 10.9064L3.10777 11.5422C3.12019 11.5603 3.13261 11.5784 3.14503 11.5991C3.15744 11.6198 3.16986 11.6431 3.18476 11.6689L3.35117 10.9477H3.49771L3.24934 12.0282L2.7675 11.3794L2.73025 11.3251C2.71783 11.3044 2.7079 11.2863 2.70045 11.2631L2.53404 11.9868H2.3875V11.9894ZM3.48529 11.9894L3.72373 10.9477H3.88268L3.64425 11.9894H3.48529ZM3.87026 11.9894L4.1087 10.9477H4.65262L4.62034 11.0925H4.23536L4.17576 11.351H4.56073L4.52596 11.4983H4.14099L4.02922 11.9868H3.87026V11.9894ZM4.59053 11.9894L4.82897 10.9477H4.98792L4.74949 11.9894H4.59053ZM4.9755 11.9894L5.21394 10.9477H5.75787L5.72558 11.0925H5.34061L5.281 11.3535H5.66597L5.6312 11.5009H5.24623L5.16923 11.8369H5.5542L5.51943 11.9894H4.9755ZM5.70323 11.9894L5.94166 10.9477H6.15526C6.29434 10.9477 6.39121 10.9555 6.44336 10.971C6.49552 10.9865 6.54023 11.0098 6.575 11.046C6.61971 11.0925 6.64951 11.1519 6.66193 11.2217C6.67435 11.2941 6.66938 11.3768 6.64951 11.4673C6.62716 11.5603 6.59487 11.6405 6.55016 11.7128C6.50546 11.7852 6.44833 11.8421 6.38127 11.8886C6.3316 11.9248 6.27696 11.9481 6.21735 11.9636C6.16022 11.9791 6.07329 11.9868 5.95904 11.9868H5.70323V11.9894ZM5.89695 11.8343H6.03107C6.1031 11.8343 6.16022 11.8292 6.19996 11.8188C6.2397 11.8085 6.27447 11.7904 6.30676 11.7671C6.35147 11.7335 6.38872 11.6922 6.41853 11.6405C6.44833 11.5914 6.47069 11.5319 6.48559 11.4647C6.50049 11.3975 6.50546 11.3406 6.49801 11.2915C6.49055 11.2424 6.47317 11.1985 6.44336 11.1649C6.42101 11.139 6.39369 11.1235 6.35644 11.1132C6.31918 11.1028 6.26206 11.0976 6.18009 11.0976H6.06584L5.89695 11.8343ZM7.37972 11.5216L7.27292 11.9894H7.1239L7.36233 10.9477H7.60325C7.67527 10.9477 7.72495 10.9529 7.75724 10.9607C7.78952 10.9684 7.81436 10.9813 7.83423 11.002C7.85907 11.0253 7.87645 11.0589 7.8839 11.1002C7.89136 11.1416 7.88887 11.1855 7.87894 11.2346C7.86652 11.2838 7.84913 11.3303 7.82181 11.3716C7.79449 11.413 7.7622 11.4466 7.72743 11.4699C7.69763 11.488 7.66534 11.5035 7.63057 11.5112C7.5958 11.519 7.54116 11.5241 7.47161 11.5241H7.37972V11.5216ZM7.42194 11.382H7.46168C7.54861 11.382 7.6107 11.3716 7.64547 11.351C7.68024 11.3303 7.7026 11.2941 7.71501 11.2424C7.72743 11.1881 7.71998 11.1468 7.69514 11.1261C7.66782 11.1028 7.61318 11.0925 7.53122 11.0925H7.49148L7.42194 11.382ZM8.4179 11.9894L8.36822 11.7206H7.98077L7.80691 11.9894H7.6405L8.36077 10.9064L8.5843 11.9894H8.4179ZM8.07515 11.5784H8.34587L8.30116 11.3406C8.29868 11.3251 8.2962 11.307 8.2962 11.2889C8.29371 11.2682 8.29371 11.2476 8.29371 11.2243C8.28378 11.2476 8.27384 11.2682 8.26143 11.2889C8.25149 11.3096 8.24156 11.3277 8.23162 11.3432L8.07515 11.5784ZM8.8128 11.9894L8.92209 11.5138L8.72339 10.9503H8.8898L9.01398 11.3044C9.01647 11.3148 9.01895 11.3251 9.02392 11.3406C9.02889 11.3561 9.03137 11.3716 9.03634 11.3872L9.06614 11.3406C9.07608 11.3251 9.08601 11.3122 9.09594 11.2993L9.38654 10.9503H9.54549L9.08104 11.5112L8.97176 11.9868H8.8128V11.9894ZM10.3254 11.475C10.3254 11.4673 10.3279 11.444 10.3328 11.4078C10.3353 11.3768 10.3378 11.3535 10.3403 11.3329C10.3303 11.3561 10.3204 11.3794 10.308 11.4052C10.2956 11.4285 10.2807 11.4544 10.2633 11.4776L9.88079 12.0334L9.75661 11.4673C9.75164 11.444 9.74667 11.4208 9.74419 11.4001C9.7417 11.3794 9.73922 11.3561 9.73922 11.3355C9.73425 11.3561 9.7268 11.3794 9.71935 11.4052C9.7119 11.4285 9.70196 11.4544 9.68955 11.4802L9.46601 11.992H9.31948L9.79883 10.9064L9.93543 11.5629C9.93791 11.5733 9.9404 11.5914 9.94288 11.6146C9.94537 11.6379 9.95033 11.6689 9.9553 11.7051C9.97269 11.6741 9.99504 11.6379 10.0248 11.5914C10.0323 11.5784 10.0397 11.5707 10.0422 11.5629L10.4744 10.9064L10.4595 11.992H10.313L10.3254 11.475ZM10.5886 11.9894L10.8271 10.9477H11.371L11.3387 11.0925H10.9537L10.8941 11.3535H11.2791L11.2443 11.5009H10.8594L10.7824 11.8369H11.1673L11.1326 11.9894H10.5886ZM11.3139 11.9894L11.5622 10.9064L12.0341 11.5422C12.0466 11.5603 12.059 11.5784 12.0714 11.5991C12.0838 11.6198 12.0962 11.6431 12.1111 11.6689L12.2776 10.9477H12.4241L12.1757 12.0282L11.6939 11.3794L11.6566 11.3251C11.6442 11.3044 11.6343 11.2863 11.6268 11.2631L11.4604 11.9868H11.3139V11.9894ZM12.9308 11.0899L12.7246 11.9868H12.5657L12.7718 11.0899H12.5135L12.5458 10.9451H13.2214L13.1891 11.0899H12.9308ZM13.0972 11.78L13.2387 11.718C13.2412 11.7645 13.2536 11.8007 13.281 11.824C13.3083 11.8473 13.3455 11.8602 13.3952 11.8602C13.4424 11.8602 13.4821 11.8473 13.5169 11.8188C13.5517 11.7904 13.574 11.7542 13.584 11.7077C13.5989 11.6456 13.5641 11.5914 13.4797 11.5448C13.4672 11.5371 13.4598 11.5319 13.4523 11.5293C13.358 11.4725 13.2983 11.4233 13.2735 11.3768C13.2487 11.3303 13.2437 11.276 13.2586 11.2114C13.2785 11.1261 13.3207 11.0589 13.3878 11.0046C13.4548 10.9529 13.5293 10.9245 13.6187 10.9245C13.6908 10.9245 13.7479 10.94 13.7901 10.9684C13.8323 10.9968 13.8547 11.0408 13.8621 11.0951L13.7231 11.1623C13.7106 11.1287 13.6957 11.1054 13.6759 11.0899C13.656 11.0744 13.6312 11.0666 13.6014 11.0666C13.5591 11.0666 13.5219 11.0796 13.4921 11.1028C13.4623 11.1261 13.4424 11.1571 13.4325 11.1985C13.4176 11.2605 13.4598 11.3199 13.5567 11.3742C13.5641 11.3794 13.5691 11.382 13.574 11.3846C13.6585 11.4311 13.7156 11.4776 13.7404 11.5241C13.7653 11.5707 13.7702 11.625 13.7553 11.6947C13.733 11.793 13.6858 11.8705 13.6138 11.93C13.5417 11.9868 13.4573 12.0179 13.358 12.0179C13.276 12.0179 13.2114 11.9972 13.1667 11.9558C13.117 11.9145 13.0947 11.855 13.0972 11.78ZM14.267 11.9894L14.5054 10.9477H14.6644L14.4259 11.9894H14.267ZM14.6544 11.9894L14.9028 10.9064L15.3747 11.5422C15.3871 11.5603 15.3995 11.5784 15.412 11.5991C15.4244 11.6198 15.4368 11.6431 15.4517 11.6689L15.6181 10.9477H15.7646L15.5163 12.0282L15.0344 11.3794L14.9972 11.3251C14.9848 11.3044 14.9748 11.2863 14.9674 11.2631L14.801 11.9868H14.6544V11.9894ZM16.2713 11.0899L16.0652 11.9868H15.9062L16.1124 11.0899H15.8541L15.8864 10.9451H16.5619L16.5296 11.0899H16.2713ZM16.4427 11.9894L16.6811 10.9477H17.2275L17.1953 11.0925H16.8103L16.7507 11.3535H17.1356L17.1009 11.5009H16.7159L16.6389 11.8369H17.0239L16.9891 11.9894H16.4427ZM17.4238 11.5216L17.317 11.9868H17.1679L17.4064 10.9451H17.6274C17.692 10.9451 17.7417 10.9503 17.774 10.9581C17.8087 10.9658 17.836 10.9813 17.8559 11.002C17.8808 11.0279 17.8957 11.0589 17.9031 11.1002C17.9106 11.139 17.9081 11.1829 17.8981 11.2321C17.8783 11.3148 17.846 11.382 17.7963 11.4285C17.7466 11.475 17.6845 11.5035 17.61 11.5138L17.836 11.9868H17.6572L17.4411 11.5216H17.4238ZM17.4635 11.3897H17.4933C17.5777 11.3897 17.6349 11.3794 17.6672 11.3587C17.6994 11.338 17.7218 11.3019 17.7342 11.2476C17.7466 11.1907 17.7417 11.1493 17.7168 11.1261C17.692 11.1028 17.6398 11.0899 17.5604 11.0899H17.5306L17.4635 11.3897ZM17.9329 11.9894L18.1713 10.9477H18.7153L18.683 11.0925H18.298L18.2384 11.351H18.6234L18.5886 11.4983H18.2036L18.0919 11.9868H17.9329V11.9894ZM19.2443 11.9894L19.1946 11.7206H18.8072L18.6333 11.9894H18.4669L19.1872 10.9064L19.4107 11.9894H19.2443ZM18.8991 11.5784H19.1698L19.1251 11.3406C19.1226 11.3251 19.1201 11.307 19.1201 11.2889C19.1176 11.2682 19.1176 11.2476 19.1176 11.2243C19.1077 11.2476 19.0978 11.2682 19.0853 11.2889C19.0754 11.3096 19.0655 11.3277 19.0555 11.3432L18.8991 11.5784ZM20.4439 11.201C20.4091 11.1597 20.3669 11.1287 20.3222 11.1106C20.2775 11.0899 20.2278 11.0796 20.1707 11.0796C20.0639 11.0796 19.9695 11.1157 19.8851 11.1881C19.8006 11.2605 19.746 11.3561 19.7187 11.4725C19.6938 11.5836 19.7038 11.6767 19.7535 11.7516C19.8006 11.824 19.8752 11.8602 19.9745 11.8602C20.0316 11.8602 20.0888 11.8498 20.1459 11.8266C20.203 11.8059 20.2601 11.7723 20.3197 11.7283L20.275 11.9196C20.2254 11.9532 20.1732 11.9765 20.1186 11.992C20.0639 12.0075 20.0093 12.0153 19.9497 12.0153C19.8752 12.0153 19.8081 12.0023 19.751 11.9765C19.6938 11.9506 19.6467 11.9119 19.6094 11.8602C19.5721 11.8111 19.5498 11.7516 19.5399 11.6844C19.5299 11.6172 19.5324 11.5448 19.5523 11.4673C19.5697 11.3897 19.5995 11.3199 19.6392 11.2527C19.6789 11.1855 19.7311 11.1261 19.7907 11.077C19.8503 11.0253 19.9149 10.9865 19.9844 10.9607C20.054 10.9348 20.1235 10.9219 20.1956 10.9219C20.2527 10.9219 20.3048 10.9296 20.3545 10.9477C20.4017 10.9658 20.4464 10.9917 20.4861 11.0279L20.4439 11.201ZM20.4588 11.9894L20.6973 10.9477H21.2412L21.2089 11.0925H20.8239L20.7643 11.3535H21.1493L21.1145 11.5009H20.7295L20.6526 11.8369H21.0375L21.0028 11.9894H20.4588Z" fill="#3D3D3C"/>
<path d="M17.568 10.0405H16.4776L17.9927 4.34607H19.083L17.568 10.0405ZM17.0017 4.52442C16.9272 4.41586 16.8104 4.36158 16.6515 4.36158H10.6608L10.3653 5.47823H15.8145L15.4966 6.66984H11.1377V6.66725H10.0474L9.14329 10.0663H10.2336L10.8396 7.78648H15.74C15.894 7.78648 16.038 7.7322 16.1721 7.62364C16.3062 7.51508 16.3957 7.38067 16.4379 7.22041L17.0439 4.94058C17.0911 4.76998 17.0762 4.63299 17.0017 4.52442ZM8.50746 9.68375C8.44786 9.90863 8.24916 10.0663 8.02563 10.0663H2.40504C2.25105 10.0663 2.1368 10.012 2.06229 9.90346C1.98778 9.7949 1.97039 9.66049 2.0151 9.50023L3.3861 4.36158H4.47644L3.25198 8.95225H7.61334L8.8378 4.36158H9.92813L8.50746 9.68375Z" fill="#70706E"/>
<path d="M20.9656 4.35641L22.344 7.21007L19.4456 10.0637L20.9656 4.35641Z" fill="#098041"/>
<path d="M19.9969 4.35641L21.3753 7.21007L18.4744 10.0637L19.9969 4.35641Z" fill="#E97626"/>
</svg>
