<svg width="26" height="18" viewBox="0 0 26 18" fill="none" xmlns="http://www.w3.org/2000/svg">
<path d="M23.6336 1H2.36641C1.61176 1 1 1.63667 1 2.42205V15.665C1 16.4504 1.61176 17.0871 2.36641 17.0871H23.6336C24.3882 17.0871 25 16.4504 25 15.665V2.42205C25 1.63667 24.3882 1 23.6336 1Z" fill="white" stroke="#C9C9C9" stroke-width="0.5" stroke-linecap="round" stroke-linejoin="round"/>
<path fill-rule="evenodd" clip-rule="evenodd" d="M10.8863 6.03108L9.93556 12.112H11.4567L12.4075 6.03108H10.8863ZM8.65573 6.03108L7.20545 10.2135L7.0339 9.31286L7.03402 9.31315L6.99621 9.1113C6.82069 8.71762 6.41418 7.9694 5.64657 7.33085C5.43179 7.15267 5.20565 6.98982 4.96973 6.84344L6.2878 12.112H7.87269L10.2929 6.03108H8.65573ZM14.5924 7.71926C14.5924 7.03176 16.0739 7.1201 16.7248 7.49341L16.9419 6.18739C16.9419 6.18739 16.272 5.92224 15.5737 5.92224C14.8187 5.92224 13.0261 6.26582 13.0261 7.93528C13.0261 9.50645 15.1301 9.52597 15.1301 10.3509C15.1301 11.1757 13.2431 11.0283 12.6203 10.508L12.394 11.8731C12.394 11.8731 13.0732 12.2166 14.1112 12.2166C15.1491 12.2166 16.7153 11.657 16.7153 10.1348C16.7153 8.55384 14.5924 8.40659 14.5924 7.71926ZM20.7997 6.03108H19.5767C19.012 6.03108 18.8744 6.48425 18.8744 6.48425L16.6059 12.112H18.1914L18.5086 11.2088H20.4424L20.6208 12.112H22.0175L20.7997 6.03108ZM18.947 9.96093L19.7463 7.68531L20.196 9.96093H18.947Z" fill="#005BAC"/>
<path fill-rule="evenodd" clip-rule="evenodd" d="M6.54254 6.6035C6.54254 6.6035 6.47958 6.05469 5.80739 6.05469H3.36528L3.33667 6.15783C3.33667 6.15783 4.51055 6.40687 5.63673 7.33991C6.71296 8.23168 7.06405 9.3433 7.06405 9.3433L6.54254 6.6035Z" fill="#F6AC1D"/>
</svg>
