<svg width="24" height="24" viewBox="0 0 24 24" fill="none" xmlns="http://www.w3.org/2000/svg">
<mask id="mask0_39_145" style="mask-type:alpha" maskUnits="userSpaceOnUse" x="0" y="0" width="24" height="24">
<rect width="24" height="24" fill="#D9D9D9"/>
</mask>
<g mask="url(#mask0_39_145)">
<path d="M2 6.55556C2 5.87778 2.26339 5.22776 2.73223 4.7485C3.20107 4.26925 3.83696 4 4.5 4H19.5C20.163 4 20.7989 4.26925 21.2678 4.7485C21.7366 5.22776 22 5.87778 22 6.55556V7.83333H2V6.55556ZM2 10.3889V16.7778C2 17.4556 2.26339 18.1056 2.73223 18.5848C3.20107 19.0641 3.83696 19.3333 4.5 19.3333H19.5C20.163 19.3333 20.7989 19.0641 21.2678 18.5848C21.7366 18.1056 22 17.4556 22 16.7778V10.3889H2ZM5.75 12.9444H7C7.33152 12.9444 7.64946 13.0791 7.88388 13.3187C8.1183 13.5583 8.25 13.8833 8.25 14.2222V15.5C8.25 15.8389 8.1183 16.1639 7.88388 16.4035C7.64946 16.6432 7.33152 16.7778 7 16.7778H5.75C5.41848 16.7778 5.10054 16.6432 4.86612 16.4035C4.6317 16.1639 4.5 15.8389 4.5 15.5V14.2222C4.5 13.8833 4.6317 13.5583 4.86612 13.3187C5.10054 13.0791 5.41848 12.9444 5.75 12.9444Z" fill="#333333"/>
</g>
</svg>
